<svg width="29" height="29" viewBox="0 0 29 29" fill="none" xmlns="http://www.w3.org/2000/svg">
<g clip-path="url(#clip0_254_1158)">
<path d="M28.9921 13.2542C28.9885 13.1992 28.9783 13.1467 28.9601 13.0947C28.9535 13.0754 28.9486 13.0566 28.9402 13.0379C28.9112 12.9751 28.8743 12.9159 28.8236 12.8657L28.823 12.8651L25.375 9.41654V6.04167C25.375 6.02838 25.3684 6.0169 25.3671 6.0036C25.3635 5.95044 25.3533 5.89908 25.3363 5.84833C25.3297 5.829 25.3249 5.81027 25.3158 5.79154C25.2862 5.7275 25.2493 5.66648 25.1974 5.61452L19.7599 0.177021C19.7079 0.125063 19.6469 0.0876042 19.5823 0.058C19.5641 0.0501458 19.546 0.0447083 19.5279 0.0386667C19.4759 0.0205417 19.4228 0.0102708 19.3684 0.00664583C19.3563 0.00604167 19.3454 0 19.3333 0H4.22917C3.89567 0 3.625 0.270667 3.625 0.604167V9.41654L0.177021 12.8645L0.175813 12.8657C0.125063 12.9165 0.0888125 12.9757 0.0598125 13.0379C0.0513542 13.0566 0.0465208 13.0754 0.039875 13.0947C0.02175 13.1467 0.010875 13.1992 0.00785417 13.2542C0.00664583 13.2675 0 13.2784 0 13.2917V24.7708C0 25.1043 0.270667 25.375 0.604167 25.375H3.625V28.3958C3.625 28.7293 3.89567 29 4.22917 29H24.7708C25.1043 29 25.375 28.7293 25.375 28.3958V25.375H28.3958C28.7293 25.375 29 25.1043 29 24.7708V13.2917C29 13.2784 28.9934 13.2675 28.9921 13.2542ZM26.9374 12.6875H25.375V11.1251L26.9374 12.6875ZM23.3124 5.4375H19.9375V2.06263L23.3124 5.4375ZM4.83333 1.20833H18.7292V6.04167C18.7292 6.37517 18.9998 6.64583 19.3333 6.64583H24.1667V9.66667V12.6875H4.83333V9.66667V1.20833ZM3.625 11.1251V12.6875H2.06263L3.625 11.1251ZM24.1667 27.7917H4.83333V25.375H24.1667V27.7917ZM27.7917 24.1667H1.20833V13.8958H4.22917H24.7708H27.7917V24.1667Z" fill="#858383"/>
<path d="M11.0284 16.1433C10.8332 15.976 10.6127 15.8576 10.3656 15.7893C10.1191 15.721 9.87923 15.6866 9.64663 15.6866H7.63354V22.9583H8.8455V20.0414H9.70825C9.9614 20.0414 10.2079 19.9967 10.4478 19.9079C10.6876 19.8191 10.8997 19.6819 11.0845 19.4971C11.2694 19.3122 11.418 19.0814 11.5316 18.8035C11.6446 18.5262 11.7014 18.2029 11.7014 17.8332C11.7014 17.4224 11.638 17.0798 11.5111 16.8061C11.3842 16.5324 11.2235 16.3113 11.0284 16.1433ZM10.2532 18.7322C10.0683 18.934 9.83211 19.0349 9.54452 19.0349H8.84611V16.7239H9.54452C9.83211 16.7239 10.0683 16.8128 10.2532 16.991C10.4381 17.1692 10.5305 17.4532 10.5305 17.8435C10.5305 18.2338 10.4381 18.5298 10.2532 18.7322Z" fill="#858383"/>
<path d="M18.5618 22.9583H19.8045V19.836H21.6636V18.7781H19.7949V16.7958H21.8176V15.6866H18.5618V22.9583Z" fill="#858383"/>
<path d="M14.546 15.6866H12.7178V22.9583H14.5357C15.474 22.9583 16.1845 22.6418 16.6672 22.0086C17.1499 21.3748 17.391 20.4831 17.391 19.3327C17.391 18.1824 17.1499 17.287 16.6672 16.6466C16.1845 16.0068 15.4776 15.6866 14.546 15.6866ZM16.0407 20.4468C15.9621 20.7658 15.8504 21.031 15.7072 21.2431C15.5634 21.4552 15.3924 21.6147 15.1936 21.7204C14.9949 21.8267 14.7792 21.8799 14.5466 21.8799H13.9611V16.765H14.5466C14.7792 16.765 14.9949 16.8182 15.1936 16.9245C15.3924 17.0303 15.5634 17.1898 15.7072 17.4018C15.851 17.6139 15.9621 17.8809 16.0407 18.2029C16.1192 18.525 16.1591 18.9014 16.1591 19.3327C16.1591 19.7575 16.1192 20.1284 16.0407 20.4468Z" fill="#858383"/>
</g>
<defs>
<clipPath id="clip0_254_1158">
<rect width="29" height="29" fill="white"/>
</clipPath>
</defs>
</svg>
