<svg width="136" height="74" viewBox="0 0 136 74" fill="none" xmlns="http://www.w3.org/2000/svg">
<g clip-path="url(#clip0_5_1156)">
<path fill-rule="evenodd" clip-rule="evenodd" d="M54.1072 31.767L53.9155 32.6318C53.6162 34.6558 53.4291 34.2024 53.7424 36.5723L53.9856 37.6661C53.995 37.6941 54.0184 37.7409 54.0418 37.7783C54.327 35.8104 54.9771 33.1413 56.268 32.0381C56.6561 32.4822 56.4036 33.3937 56.1604 34.1136C55.9172 34.8334 55.066 35.184 54.907 35.6327C54.7807 35.9973 54.9584 36.0768 54.8602 36.6611C54.5843 38.227 54.1914 37.7549 54.3878 40.4146C54.8368 39.3863 54.6638 38.4888 55.2811 37.8203L54.9117 40.5736C55.6319 39.5265 55.2578 37.4511 56.0902 36.4554C56.5533 38.8394 55.3747 39.62 55.0146 41.9011C55.2578 42.1208 55.0052 41.9946 55.4402 42.0273C55.5477 41.5645 55.8283 41.228 56.3101 40.9335C56.1183 41.6907 55.7816 41.9385 56.0388 42.6303L56.5673 42.6677C56.5907 42.635 56.6187 42.5461 56.6281 42.5695L57.0724 41.8076C57.2641 41.471 57.3904 41.2747 57.5448 40.9241C57.6804 40.9522 57.7973 41.5225 58.0545 40.452C58.3866 39.0684 58.2837 39.4984 58.6438 39.4096C58.873 39.8817 58.0826 41.3729 57.9563 41.5038C57.6196 41.845 57.9844 41.6159 57.7693 41.5552C56.9648 41.3355 58.3305 41.1158 57.6149 41.4523L56.3475 44.3504C57.3109 43.8877 56.9835 41.3682 58.6719 43.079C58.6392 43.6399 58.4427 44.2663 58.6438 44.6917C58.7514 44.4206 58.8683 44.0653 58.9806 43.7054C59.1817 43.051 59.1349 42.9995 59.4623 42.663C59.5605 42.3218 59.3921 42.6957 59.64 42.2844C59.7382 42.1208 59.8505 41.9946 59.944 41.8543C60.6923 40.7792 60.6269 40.1716 61.2769 39.218C61.7961 39.3863 62.0206 39.6527 62.2684 40.1622C61.7587 40.0968 61.5763 39.9565 61.1694 40.1201L61.001 40.8447C61.5716 41.1906 62.2264 41.3542 63.0916 41.3261C64.1626 41.2981 63.9194 40.7745 64.8501 40.4427C64.6911 41.0831 64.2889 41.2887 64.2889 42.1769C65.1073 41.873 64.4105 41.8263 66.0287 41.6767C66.922 41.5972 66.95 41.2934 67.675 41.1345L67.8199 42.7191C68.8442 43.668 70.5326 44.1588 72.263 44.4393C73.2171 44.5935 74.2086 44.6309 75.2235 44.6169C76.1776 44.6075 77.3889 44.257 77.9876 44.2897L78.3617 43.9952C78.3898 43.9765 78.4272 43.9578 78.4599 43.9391L79.6712 43.2239C80.1717 42.8593 80.4991 42.5742 80.9948 42.032C83.8945 38.8861 84.6896 34.4828 83.5812 30.103C82.7861 29.9861 83.1088 30.6265 82.6879 29.701C81.3596 26.7655 81.2006 25.4707 78.198 23.2363C73.8999 20.0344 68.4467 20.254 63.3208 22.3014C59.9393 23.6523 58.5737 24.6807 56.3615 27.7704C55.8517 28.4809 55.5524 28.7941 55.1034 29.6215C54.7947 30.1731 54.5328 31.351 54.1072 31.767Z" fill="#E76C19"/>
<path fill-rule="evenodd" clip-rule="evenodd" d="M89.3104 13.9156C89.4132 13.565 89.474 13.378 89.6377 13.149L90.054 12.7423C89.9932 13.5744 89.9417 13.6585 89.3104 13.9156ZM92.6637 13.1163C92.5234 12.8685 92.486 13.3687 92.5374 12.6722L92.963 11.5644C93.2857 11.9757 93.1174 12.8124 92.6637 13.1163ZM90.0961 8.18482L89.8576 10.12C89.7032 11.9477 89.0531 14.0231 87.5893 14.4952C87.7202 13.967 87.9774 13.6632 87.781 13.2472C87.6781 13.3126 86.7755 14.4999 86.5977 14.7056C86.116 14.6541 85.7045 14.4672 85.1198 14.556C84.8673 14.9486 84.9749 14.8458 84.9141 15.3787C84.1003 15.5002 83.5811 15.7994 82.9077 15.7573C82.1032 15.7059 81.2474 15.5002 81.0088 16.3089C81.6496 16.5706 82.7346 16.4959 83.3239 16.7483C82.1266 17.1409 80.9854 16.5613 80.8358 18.1366L81.9629 18.1926C82.0144 18.8658 82.1032 18.6414 81.6309 18.9078C81.4017 19.0387 81.2754 18.9592 80.948 19.2818C81.9582 21.1889 81.8554 20.0297 82.4072 20.9739C82.931 21.8714 82.8983 22.5118 83.2584 23.3485C83.4362 23.7598 84.3856 24.7882 84.6662 25.0546C84.9468 25.3164 85.2368 25.5969 85.5361 25.8166C86.1909 26.298 86.1534 25.9895 86.6679 26.2326L86.7381 27.1207C87.7062 28.0743 87.3507 28.925 90.9145 26.5691C92.327 25.6343 93.3559 24.5872 94.3801 23.3672C95.4511 22.0911 96.3912 21.231 97.0273 19.3566C97.5511 17.8047 97.9299 15.1637 96.9524 13.8689C96.6297 14.6915 96.9291 15.9116 95.989 17.7392C95.7411 18.2207 95.6943 18.4497 95.2267 18.5199C94.7777 16.594 96.0919 16.3229 96.279 15.6778L96.3351 12.1627C96.2696 12.359 96.2602 12.532 96.1948 12.7517C96.1246 12.9947 96.1761 12.8966 96.0685 13.1116C95.9329 13.3921 96.0077 13.2659 95.844 13.4575L95.8814 11.7701C95.3295 12.5928 95.83 14.2007 95.1752 15.0935C94.469 13.8642 95.5961 12.2422 95.671 10.6482C95.4792 10.7417 95.3015 10.7697 95.222 10.7978L94.5812 11.8542C94.338 11.2839 95.6756 10.2602 94.1369 10.3397C93.8423 10.9333 93.7768 11.354 93.3699 11.742C93.4027 10.4846 94.0902 9.95173 94.2398 8.97479C93.8283 9.42353 93.8984 9.72268 93.6131 10.1761C93.1969 10.8445 92.9724 10.5127 92.2802 10.3397L92.2428 9.05425L91.9014 9.95173C91.7283 10.695 91.2232 11.3353 90.4328 11.7514C90.5404 10.6716 91.2934 8.52605 90.966 7.5304C90.2036 7.45561 90.5638 7.66129 90.0961 8.18482Z" fill="#E76C19"/>
<path fill-rule="evenodd" clip-rule="evenodd" d="M42.153 13.9109C42.7844 13.9249 43.7385 13.9483 44.0144 14.4017C43.7198 14.6074 44.3465 14.5887 43.5561 14.5607L42.616 14.2802C42.4336 14.1961 42.5646 14.2755 42.4149 14.1774C42.1904 14.0231 42.3074 14.0839 42.153 13.9109ZM44.8703 10.5968C43.7432 10.5127 43.5467 10.4472 42.5693 10.7978L45.3801 11.2138L42.6301 11.312C43.3644 11.6625 44.9779 11.3727 45.8759 11.7654C44.6552 12.5694 43.0136 11.5363 41.4141 11.5457C41.704 12.1814 42.1764 12.1206 42.6581 12.6301C41.9893 12.5367 41.7742 12.2702 41.2878 12.4572C40.8716 13.2565 41.4702 13.135 42.2232 13.5183C42.1811 13.551 42.5365 14.0652 40.9744 13.4341C40.8809 13.3967 40.5021 13.2331 40.4366 13.2144C39.6088 12.9947 40.0531 13.0789 39.8567 13.2846C40.3805 13.3266 41.4468 13.4902 41.4421 14.2475C41.4421 14.4859 41.3392 14.5653 41.2504 14.9346L39.9455 15.0187C40.446 15.346 40.8856 15.3132 41.3252 15.4394C42.3074 15.7152 42.1016 16.5379 43.6824 16.9446C43.8928 17.0007 44.2109 17.0334 44.3933 17.1035C44.9218 17.3092 44.7908 17.2578 44.9405 17.6972C43.9209 17.4634 44.2389 17.0334 42.0455 16.6221L38.6921 16.3603C38.6594 16.3696 38.6033 16.3837 38.5658 16.4024C38.4021 17.3513 39.9175 17.2297 41.3205 17.3606C43.3877 17.5242 45.1603 18.1225 45.8244 19.5108C45.3193 19.3893 44.9311 19.02 44.44 19.2818C44.7066 19.5669 45.6093 20.0998 45.9507 20.2727C45.9179 20.6841 45.7309 21.1936 45.773 21.5068C45.8712 22.1986 45.9741 21.9321 46.7083 22.035L47.1714 23.4981C47.176 23.5448 47.3117 23.7271 47.0498 24.0496C47.2555 25.1014 46.9328 25.5922 47.8869 25.8586L48.1021 23.6102C48.5744 24.3021 47.8916 25.7418 49.6221 25.9474L49.6595 24.662C50.5762 24.7601 50.3376 25.078 50.6463 25.7838C51.2403 25.6529 51.736 25.1995 51.9792 24.7368C52.2786 24.1758 51.6986 24.5872 52.5638 24.1525C52.9661 23.9515 53.1064 23.844 53.4618 23.7785C54.1821 23.0727 54.14 23.9889 55.9546 22.222C56.5532 21.6377 57.3717 20.7776 57.4138 19.7025C60.9355 19.3659 58.2556 16.3369 56.9929 14.7196C55.3606 12.6301 52.6667 11.2839 51.9979 10.4145C51.8576 10.4005 46.6803 8.12405 44.5523 10.1107C46.1939 10.2041 46.9609 10.1761 48.4482 10.8492C48.9673 11.0829 49.1918 11.1156 49.2947 11.5644C48.219 11.8682 47.5689 11.5878 46.9141 11.0362C46.0115 10.2743 46.1939 10.8913 44.8703 10.5968Z" fill="#E76C19"/>
<path fill-rule="evenodd" clip-rule="evenodd" d="M65.734 15.0795C65.6826 14.9674 65.3459 15.3927 65.706 14.5513C65.8229 14.2802 65.8977 14.2522 66.1222 14.154C66.0568 14.6822 66.1363 14.7804 65.734 15.0795ZM65.9726 3.84235C65.3786 3.8143 64.7332 2.75789 64.5508 2.25306C65.112 2.5195 66.038 3.23 65.9726 3.84235ZM64.1392 1.58462C64.0036 2.44471 64.0223 2.1362 63.5593 2.62233C62.8156 2.52417 62.8344 2.25306 62.217 2.02401C62.4228 2.50547 62.7174 2.61298 63.1477 3.09445C63.8539 3.88909 63.1805 4.59492 64.3824 5.84298C65.0606 6.54413 65.1354 6.55816 64.8454 6.97418C64.4432 6.58153 64.2842 5.91309 63.9942 5.50175C63.592 4.93615 63.4049 4.78189 62.8577 4.26304C62.3573 3.78625 60.9402 2.28578 60.1592 2.47743C60.0563 3.55721 61.5061 3.96388 62.072 4.84266C62.3994 4.92213 62.8858 5.28205 63.0121 5.64665C64.0316 6.11877 64.7285 7.8997 64.6303 9.02155C64.1766 8.62423 64.2936 8.19886 63.5359 8.03058C63.7557 8.75511 64.1158 9.02623 64.2234 9.9424C63.9381 10.1294 63.5967 10.279 63.4424 10.6623C63.1851 11.3167 63.4891 11.1764 63.8399 11.5925C63.4845 14.369 62.0019 14.0418 62.6286 15.388C63.3067 15.2104 63.8773 14.0886 64.2702 13.6539C64.1112 14.4906 62.9326 15.4441 64.1065 16.4538C64.7051 16.1733 64.359 15.8835 64.9951 15.4815C65.5142 16.0612 65.2336 16.2622 65.0746 16.9727C66.6133 17.2438 66.7162 16.6688 67.3476 16.6268C68.1894 16.5707 69.0968 16.9399 69.7609 17.0568C71.1219 17.2952 73.3387 16.6735 74.0215 15.7667C76.1729 16.0284 76.7575 16.8324 76.6266 12.331C76.5517 9.75543 75.7894 8.72707 75.4199 6.66567C74.985 6.15616 75.1721 5.16519 73.7409 3.44035C72.4127 1.83704 71.959 1.85574 71.206 1.09849L68.9331 0.476796C69.368 1.11251 71.9123 2.66908 72.0572 4.32381C70.57 4.35185 70.1537 2.1175 69.9339 1.92585L68.6618 0.976954C68.2502 0.649748 67.8387 0.26645 67.1745 0.135567C67.4972 0.97228 68.0211 0.775956 68.3859 1.62202L66.473 0.345914C66.9781 1.25274 68.5075 1.45374 68.9658 2.67375C66.8846 2.26241 66.6367 0.243078 65.2851 -0.00933838L65.8697 1.5519C65.2056 1.13121 65.4768 0.579633 64.5555 0.659097C64.2515 1.43037 64.8548 1.52853 65.1635 2.45406C64.5648 2.16425 64.6116 1.86041 64.1392 1.58462Z" fill="#E76C19"/>
<path fill-rule="evenodd" clip-rule="evenodd" d="M90.1475 33.9079C90.6901 34.1042 90.7929 34.2258 91.0174 34.6605C90.4562 34.567 90.2785 34.4548 90.1475 33.9079ZM104.188 39.606L104.557 38.8768C104.089 39.0123 103.163 39.8818 102.392 40.0781L104.276 38.4234C103.336 38.6244 102.813 39.9893 101.377 40.2978C101.826 39.2788 101.98 39.2414 102.972 38.7552C103.64 38.428 104.566 38.0307 104.856 37.381C104.291 37.409 103.575 37.6568 103.182 37.4885C104.047 37.1239 104.211 37.1566 104.309 36.8294C104.618 35.8244 103.243 36.5536 102.649 36.6237C102.261 37.0164 102.177 36.7686 101.859 36.8761L101.47 37.1379C101.157 37.2828 101.307 37.2454 100.956 37.1706C101.279 36.404 102.064 36.1329 102.864 36.0161C102.724 36.4882 103.051 36.4321 102.714 36.4367C103.369 36.0207 104.585 35.6702 105.053 35.2962C104.595 35.385 104.066 35.6795 103.706 35.7262C102.93 35.8244 103.009 35.4925 102.803 34.9596C103.06 34.4034 103.294 34.5016 103.631 33.8986C103.042 34.0855 102.873 34.352 102.438 34.5483C101.751 34.8615 101.583 34.6278 100.788 34.6652C99.6604 34.7166 98.7951 35.787 98.1825 35.2588C98.7437 34.8381 99.1553 35.2588 101.194 34.0435C102.083 33.5153 102.986 32.6739 103.771 32.2999L103.659 31.739C102.144 31.5474 99.043 35.8151 96.3725 34.5203C96.77 34.2304 97.2705 34.2491 97.5043 33.7817L95.6148 33.9687C95.3576 33.5947 95.3015 33.1881 94.9601 32.9403C94.338 32.4822 94.4877 32.9871 93.8329 33.132C93.1688 32.5617 92.7011 32.6365 92.2942 32.0709C91.8312 31.4165 91.6582 30.9771 90.5965 30.9771C90.6947 31.9166 91.4524 32.3046 91.9107 33.0432C91.1344 32.7019 90.6386 31.323 89.2028 32.155C89.432 33.0011 89.6752 32.4776 89.9511 33.3143C88.9549 33.6275 89.2636 33.2021 88.375 33.0385C87.9166 34.7914 88.8661 34.7072 87.3086 37.3202C86.6866 38.3626 86.7568 40.7138 87.4256 42.06C85.363 44.4299 88.2581 44.874 89.5302 45.1778C91.5506 45.6593 93.3185 45.7154 95.5119 45.5144C98.2246 45.262 100.764 44.6356 102.41 42.6537C102.696 42.3124 103.467 41.0831 103.542 40.6484C102.672 41.2701 100.17 43.3501 99.0196 42.8032C99.3003 41.4196 101.756 41.5365 101.765 41.5365C102.074 41.2514 101.947 41.2607 102.233 40.9989L104.094 39.6667C104.122 39.6387 104.16 39.62 104.188 39.606Z" fill="#E76C19"/>
<path fill-rule="evenodd" clip-rule="evenodd" d="M45.1088 39.0684C45.8104 39.218 45.787 39.0731 45.9367 39.7182C45.1042 39.4704 45.5719 39.6013 45.1088 39.0684ZM40.8248 28.3875C39.9362 29.1027 36.0824 28.4249 33.1266 31.94C32.7197 32.4261 31.9433 33.8378 31.9246 34.4268C32.7524 33.4124 34.6419 31.8979 36.1806 31.6969C36.1058 33.3002 33.8702 33.1927 33.5054 33.5012C33.3838 33.6041 33.3651 33.7911 32.3923 34.6044C31.9293 34.9924 31.5131 35.2915 31.354 36.0161C32.107 35.6655 32.2193 35.2448 32.9255 34.941C32.5607 35.7216 31.8591 36.1095 31.4523 36.7079C32.4157 36.2965 32.7431 35.0204 34.1041 34.5249C33.7767 35.8852 33.0237 35.9366 31.7282 36.8948C31.2792 37.2267 31.1015 37.3296 30.9425 37.8531L32.57 37.4137C32.2707 37.7689 31.9948 37.9325 31.5505 37.9886C31.4102 39.4237 32.1725 38.6664 32.9535 38.3766C32.9863 38.3392 33.0377 38.2411 33.0611 38.2738C33.0798 38.3065 33.1359 38.199 33.164 38.185C33.5101 37.9793 33.5428 37.9933 33.9965 38.0588C34.2771 37.8437 34.3286 37.6942 34.8009 37.6334C34.7588 38.1943 34.9272 37.8998 34.394 38.2364C34.1275 38.4047 33.8936 38.5496 33.6878 38.6524C33.5101 38.7926 33.9497 38.7132 33.2763 38.9095C33.0424 38.9796 32.7852 38.9609 32.5373 38.9703L30.9939 39.807C32.1444 39.6527 32.7244 38.414 33.2903 40.1389L32.5607 41.0363C33.1874 40.8494 33.2529 40.6297 33.6925 40.3539C34.511 39.8444 35.1938 40.4988 36.4893 39.6106C36.7886 39.405 36.9663 39.1385 37.3452 39.1245C38.0514 39.0918 37.565 39.0918 37.7895 39.2554C36.812 40.0033 37.3218 38.7739 33.613 41.8964C33.1219 42.3078 32.5934 42.4573 32.6449 43.3128C34.5531 43.4109 36.1105 39.0731 39.8005 39.7602L38.5658 40.5362L38.94 40.7792C39.1645 40.5829 38.7857 40.812 39.23 40.5736C39.6977 40.3212 40.0531 40.3118 40.5909 40.3165C40.8341 40.6484 40.9557 41.0644 41.3018 41.228C41.9613 41.5365 41.7041 41.1018 42.3682 40.9101C42.9154 41.2514 43.6543 41.3916 44.0004 41.7655C44.5383 42.3498 44.5757 42.7425 45.8104 42.7051C45.5391 41.6767 44.5476 41.3168 44.3559 40.812C45.2445 41.0691 45.4269 42.233 47.0732 41.4524C46.9001 40.6904 46.4885 41.0924 46.2407 40.3071C47.0919 39.8818 46.9656 40.3399 47.8074 40.4193C48.1582 37.61 46.9796 39.5779 48.4482 36.0114C48.7662 35.2401 48.7755 32.4215 47.8308 31.4211C48.0366 30.8742 48.4248 30.5143 48.2564 29.6823C48.1208 29.0092 47.6718 28.9391 47.3631 28.8082L46.9001 28.5838C46.0676 28.7942 44.9545 28.3922 44.0051 28.3501C42.9294 28.2846 41.8116 28.4856 40.8248 28.3875Z" fill="#E76C19"/>
<path d="M11.3602 50.4225C11.3602 50.0906 11.3135 49.8055 11.2152 49.5671H16.43C16.8696 50.7544 17.197 52.2081 17.4075 53.9283C17.6226 55.6484 17.7349 57.2845 17.7442 58.8457H13.5163C13.4321 56.6207 13.072 54.4752 12.4359 52.4091C11.3743 54.5126 10.8037 56.6581 10.7148 58.8457H7.12762C6.80959 56.4197 6.20159 54.2695 5.29894 52.3904C4.6395 53.961 4.31212 55.4194 4.31212 56.7703C4.31212 57.4995 4.3963 58.1913 4.56935 58.8504H0.126277C0.0420922 58.3362 0 57.6678 0 56.831C0 55.9943 0.1216 55.1576 0.364799 54.3162C1.23003 54.0545 2.06252 53.6291 2.86227 53.0354C3.66202 52.4418 4.25132 51.7921 4.62547 51.0862C4.30744 50.5534 3.9707 50.0485 3.61993 49.5671H9.4006C9.86361 50.8432 10.2097 52.2268 10.4436 53.7226C11.0562 52.5727 11.3602 51.4742 11.3602 50.4225ZM31.2091 58.6961V58.8457H26.9624C26.9156 58.1399 26.8081 57.4107 26.6537 56.6581C25.8961 57.4387 25.0449 58.1679 24.0908 58.8457H19.8301C19.7459 58.3409 19.7038 57.6678 19.7038 56.831C19.7038 55.9943 19.8254 55.1576 20.0686 54.3162C20.9479 54.0545 21.7897 53.6197 22.6035 52.9981C23.4126 52.381 24.0019 51.7126 24.3667 50.9927C24.0393 50.4739 23.6886 49.9971 23.3238 49.5624H29.3991C30.6057 52.2268 31.2091 55.2698 31.2091 58.6961ZM26.3264 55.3025C26.0083 54.204 25.5968 53.1617 25.0823 52.1847C24.507 53.8909 24.1796 55.5035 24.0955 57.0274C24.97 56.5693 25.7137 55.9943 26.3264 55.3025ZM40.8341 50.6983C40.4085 50.6235 39.997 50.5861 39.5994 50.5861C39.2019 50.5861 38.7248 50.6562 38.1636 50.7917C37.9812 51.5724 37.8877 52.3296 37.8877 53.0728C37.8877 54.9893 38.7295 56.4618 40.4132 57.4901C41.5357 56.7375 42.5459 55.7933 43.4485 54.6715C43.486 55.167 43.514 55.9195 43.5421 56.9339C42.6394 57.6491 41.7181 58.2147 40.778 58.6213C39.838 59.028 38.6687 59.2337 37.2657 59.2337H36.8447C35.7457 58.7522 34.8851 58.0417 34.2584 57.1022C33.6317 56.1626 33.3183 55.1716 33.3183 54.1339C33.3183 52.7503 33.8796 51.5724 35.002 50.6001C36.1245 49.6278 37.7521 49.1417 39.8847 49.1417C41.082 49.1417 42.3308 49.2959 43.6356 49.6045C43.4392 50.3851 43.196 51.119 42.906 51.8108C42.139 51.8855 41.3439 51.9229 40.5255 51.9229C40.6424 51.577 40.7453 51.1704 40.8341 50.6983ZM52.8164 50.7731C52.4984 52.7269 52.3394 54.3209 52.3394 55.5596C52.3394 56.7983 52.3861 57.8921 52.4843 58.8457H48.4949C48.0787 56.8778 47.8729 54.765 47.8729 52.5026C47.8729 52.1193 47.8869 51.5443 47.9103 50.7777C46.872 51.0862 46.2407 51.7967 46.0068 52.9092L44.1968 52.7971L44.8563 49.5671H57.0209C56.7777 50.9273 56.4971 52.0398 56.1791 52.9046L54.3317 52.7924C54.3785 52.5961 54.4065 52.3951 54.4065 52.1987C54.4065 51.7173 54.2616 51.3573 53.9669 51.1236C53.6769 50.8899 53.2888 50.7731 52.8164 50.7731ZM64.6677 53.2972L66.3888 53.4094C66.5618 53.4094 66.6881 53.4047 66.7723 53.3907L65.9118 55.0221H65.7481C65.5142 55.0221 65.1868 54.9566 64.7612 54.8257C64.3356 54.6948 64.0316 54.6294 63.8446 54.6294C63.3441 54.6294 62.9466 54.9566 62.6566 55.611C62.6099 56.2187 62.5724 56.8217 62.5491 57.4294C63.1851 57.5509 63.6855 57.6163 64.0503 57.6163H64.214C64.7379 57.6163 65.1541 57.4995 65.4674 57.2658C65.7808 57.032 66.0006 56.6113 66.1363 56.0037L68.3297 56.0972C68.1473 57.1629 67.9041 58.0744 67.6001 58.841H58.6158C58.3726 57.1723 58.251 55.5129 58.251 53.8675C58.251 52.2221 58.3352 50.7871 58.5082 49.5624H68.3157C68.0959 50.8993 67.8994 51.8388 67.7311 52.381C67.0108 52.4184 66.3514 52.4418 65.7574 52.4558C65.8556 52.1707 65.9024 51.9042 65.9024 51.6565C65.9024 51.0629 65.4628 50.7637 64.5835 50.7637C64.2561 50.7637 63.8867 50.8011 63.4844 50.8759C63.2179 52.0492 63.0074 53.0822 62.8624 53.975C63.3441 53.5263 63.9521 53.2972 64.6677 53.2972ZM74.7324 56.5225C74.7324 57.2284 74.7652 57.9996 74.826 58.841H70.7991C70.2987 56.8731 70.0508 54.7837 70.0508 52.568C70.0508 51.4415 70.1163 50.4412 70.2519 49.5624H80.167C80.5224 50.96 80.7142 52.6241 80.7516 54.5546C78.9463 55.3726 76.9399 55.9008 74.7324 56.1486V56.5225ZM74.7511 54.8725C75.5322 54.7743 76.1823 54.5733 76.7108 54.2788C76.5143 52.97 75.9905 51.8061 75.1393 50.7917C74.9382 52.0164 74.8119 53.3767 74.7511 54.8725ZM90.1709 58.7896C89.0859 57.3779 88.5434 55.9336 88.5434 54.4471C88.5434 52.9607 89.1513 51.7079 90.372 50.6796C91.5927 49.6512 93.1548 49.1417 95.0536 49.1417C96.0638 49.1417 97.074 49.2959 98.0702 49.6045C98.9495 50.731 99.3891 51.937 99.3891 53.2224C99.3891 54.8444 98.7343 56.2514 97.4295 57.4527C96.1246 58.654 94.5438 59.2524 92.6918 59.2524C91.9014 59.2524 91.0642 59.0981 90.1709 58.7896ZM92.9537 50.7544C92.5281 51.4976 92.3129 52.367 92.3129 53.372C92.3129 54.3723 92.5281 55.2978 92.963 56.1439C93.398 56.99 93.992 57.6023 94.7449 57.9716C95.3202 57.2284 95.6055 56.3683 95.6055 55.3913C95.6055 54.4144 95.3716 53.5029 94.8993 52.6662C94.4316 51.8248 93.7815 51.1891 92.9537 50.7544ZM108.518 51.6659C108.518 51.0722 108.079 50.7731 107.2 50.7731C106.872 50.7731 106.503 50.8104 106.1 50.8852C105.492 53.4187 105.184 55.6718 105.184 57.6397C105.184 58.1819 105.198 58.5839 105.221 58.8457H101.251C101.007 57.1769 100.886 55.5175 100.886 53.8628C100.886 52.2128 100.97 50.7777 101.143 49.5671H110.932C110.726 50.7777 110.53 51.7173 110.347 52.3857C109.725 52.3997 109.066 52.4231 108.373 52.4605C108.472 52.1754 108.518 51.9136 108.518 51.6659ZM123.779 51.1096C123.779 53.5356 123.545 56.1112 123.082 58.8457H118.709C118.906 57.3873 119.032 55.8167 119.093 54.1339C118.457 53.7366 117.751 53.4982 116.97 53.4094C116.895 55.2277 116.703 57.0414 116.385 58.8457H112.232C112.391 57.635 112.47 56.1813 112.47 54.4939C112.47 52.8064 112.363 51.1657 112.143 49.5671H116.974C116.998 50.0719 117.012 50.8291 117.012 51.8295C117.718 52.0538 118.419 52.353 119.116 52.7363C119.116 51.5864 119.074 50.53 118.99 49.5624H123.746C123.765 50.2589 123.779 50.773 123.779 51.1096ZM125.79 52.8905C125.79 51.9136 125.926 50.8058 126.193 49.5717H135.743C135.916 50.8806 136 52.3062 136 53.8488C136 55.3867 135.822 57.0554 135.472 58.8504H131.482C131.557 57.9856 131.59 57.233 131.59 56.5973C131.59 55.9616 131.585 55.5362 131.571 55.3259C130.533 55.77 129.887 56.9479 129.63 58.8504H124.911C125.009 57.4527 125.257 56.2327 125.659 55.195C127.1 55.1342 128.363 54.9613 129.448 54.6762C128.035 54.3817 126.815 53.9656 125.79 53.4328V52.8905ZM131.187 50.8104C130.542 51.6518 130.107 52.4792 129.887 53.2972C130.304 53.6805 130.846 53.9236 131.515 54.0217C131.445 52.97 131.332 51.8996 131.187 50.8104Z" fill="#7F0909"/>
<path d="M29.0623 63.8145C28.8519 65.1047 28.7443 66.1564 28.7443 66.9744C28.7443 67.7924 28.7771 68.5123 28.8425 69.1433H26.172C25.8961 67.8439 25.7558 66.4509 25.7558 64.9551C25.7558 64.7027 25.7651 64.324 25.7792 63.8145C25.087 64.0202 24.6614 64.4877 24.507 65.2215L23.2957 65.1467L23.7353 63.0152H31.8825C31.7188 63.9127 31.5318 64.6466 31.3213 65.2169L30.0819 65.1421C30.1147 65.0112 30.1287 64.8803 30.1287 64.7494C30.1287 64.4316 30.0305 64.1932 29.834 64.0389C29.6376 63.894 29.3804 63.8145 29.0623 63.8145ZM36.9991 65.4786L38.1496 65.5534C38.2618 65.5534 38.3507 65.5487 38.4068 65.5394L37.8316 66.6145H37.7193C37.565 66.6145 37.3452 66.5724 37.0599 66.4883C36.7746 66.4041 36.5688 66.3574 36.4472 66.3574C36.1105 66.3574 35.8486 66.5724 35.6521 67.0071C35.6194 67.4091 35.596 67.8065 35.5773 68.2085C36.0029 68.2879 36.335 68.33 36.5828 68.33H36.6951C37.0458 68.33 37.3265 68.2505 37.5322 68.0963C37.7427 67.942 37.8877 67.6615 37.9812 67.2642L39.4498 67.325C39.3282 68.0262 39.1645 68.6291 38.9587 69.1387H32.9442C32.7805 68.0355 32.701 66.9417 32.701 65.8572C32.701 64.7728 32.7571 63.8239 32.874 63.0152H39.4404C39.2954 63.8987 39.1645 64.5157 39.0476 64.8756C38.5658 64.899 38.1262 64.9177 37.724 64.9224C37.7895 64.7354 37.8222 64.5578 37.8222 64.3942C37.8222 64.0015 37.5276 63.8052 36.9383 63.8052C36.7185 63.8052 36.4706 63.8286 36.204 63.88C36.0263 64.6559 35.886 65.3384 35.7878 65.9227C36.1151 65.6329 36.5174 65.4786 36.9991 65.4786ZM48.4528 63.0199L48.4762 64.0623C48.4762 65.6516 48.3219 67.3484 48.0085 69.1433H45.0855C45.2725 67.8111 45.3661 66.493 45.3661 65.1748C45.3661 64.7167 45.352 64.2633 45.3287 63.8145H45.1182C44.6505 63.8145 44.267 63.8379 43.9536 63.8893V64.282C43.9536 65.9227 43.8133 67.5447 43.5374 69.1433H40.7453C40.8575 68.2692 40.9183 67.3156 40.9183 66.2779C40.9183 65.2402 40.8435 64.1558 40.6985 63.0199H48.4528ZM57.3483 69.1433H54.5188C54.3738 67.5026 53.9576 66.0442 53.2701 64.7728C52.8304 65.7778 52.6106 66.6986 52.6106 67.54C52.6106 68.1103 52.7182 68.6478 52.9286 69.1433H49.7437C49.6875 68.8068 49.6595 68.358 49.6595 67.7971C49.6595 67.2315 49.739 66.6893 49.8933 66.1564C50.4873 65.9834 51.0626 65.6936 51.6098 65.2823C52.157 64.871 52.5498 64.4316 52.7837 63.9641C52.6059 63.679 52.3721 63.3658 52.0868 63.0199H56.1417C56.9414 64.7588 57.3483 66.7968 57.3483 69.1433ZM59.3454 69.1059C58.6205 68.1757 58.2556 67.2222 58.2556 66.2405C58.2556 65.2589 58.6625 64.4316 59.481 63.7538C60.2995 63.076 61.3424 62.7394 62.6192 62.7394C63.2974 62.7394 63.9708 62.8423 64.6396 63.0433C65.2289 63.7865 65.5236 64.5811 65.5236 65.4319C65.5236 66.5023 65.0886 67.4325 64.214 68.2225C63.3395 69.0124 62.2825 69.4098 61.0431 69.4098C60.5052 69.4098 59.9393 69.3069 59.3454 69.1059ZM61.2068 63.8052C60.9215 64.296 60.7765 64.871 60.7765 65.53C60.7765 66.1891 60.9215 66.8015 61.2115 67.3624C61.5014 67.9233 61.899 68.3253 62.4041 68.5684C62.7876 68.0776 62.9793 67.512 62.9793 66.8669C62.9793 66.2218 62.8203 65.6235 62.507 65.0673C62.1983 64.511 61.7633 64.0903 61.2068 63.8052ZM71.1172 69.1433C71.2247 68.3253 71.2762 67.3624 71.2762 66.2499C71.2762 65.1374 71.2013 64.0623 71.0564 63.0246H74.2881C74.2975 63.1695 74.3021 63.5621 74.3021 64.1978C74.3021 64.8336 74.2273 65.6796 74.0823 66.7313C74.7371 66.1377 75.3217 65.4319 75.8362 64.6232C75.8268 64.1184 75.7847 63.5808 75.7005 63.0199H78.8715C78.8902 63.5107 78.8949 63.8753 78.8949 64.123C78.8949 65.7077 78.7405 67.3811 78.4272 69.1433H75.4994C75.6631 68.0495 75.7707 67.0632 75.8175 66.1798C75.3591 66.8903 74.6108 67.8766 73.5632 69.1433H71.1172ZM91.9902 63.2536C91.7143 63.3191 91.4805 63.3518 91.2934 63.3518C91.1063 63.3518 90.9239 63.3378 90.7555 63.3144C90.503 63.6182 90.2738 64.0202 90.068 64.525C89.8622 65.0299 89.7126 65.4833 89.6097 65.8853C89.5068 66.2873 89.3946 66.7734 89.2729 67.353C88.6509 70.3072 88.0336 72.406 87.4115 73.6447C87.0046 73.7663 86.4949 73.8878 85.8915 74C86.71 72.6024 87.3694 70.985 87.8745 69.1387H85.3397C84.6943 67.0492 84.3575 65.0065 84.3341 63.0152H87.912C87.7389 63.7725 87.6547 64.5811 87.6547 65.4319C87.6547 66.2826 87.795 67.2596 88.071 68.3534C88.1271 68.1337 88.2253 67.7457 88.3656 67.1941C88.5059 66.6425 88.6088 66.2499 88.6696 66.0115C88.7351 65.7731 88.8333 65.4412 88.9689 65.0065C89.1046 64.5718 89.2262 64.2493 89.3384 64.0342C89.4507 63.8192 89.5863 63.5761 89.75 63.305C90.0446 62.8236 90.4328 62.4964 90.9145 62.3234C91.0549 62.2813 91.3355 62.2393 91.7611 62.1972C92.1867 62.1505 92.4907 62.071 92.6777 61.9448C92.4579 62.459 92.2288 62.8937 91.9902 63.2536ZM92.8227 69.1433C92.935 68.2786 92.9958 67.3203 92.9958 66.2639C92.9958 65.2122 92.9163 64.1277 92.7619 63.0199H95.9937C96.0077 63.3284 96.0171 63.7584 96.0171 64.31C96.0171 64.8616 96.0124 65.2589 96.003 65.502C96.3632 65.502 96.6672 65.516 96.9197 65.5487C97.1255 64.6653 97.6259 63.9781 98.4257 63.478C99.2254 62.9778 100.114 62.7301 101.096 62.7301C101.718 62.7301 102.368 62.8329 103.056 63.0339C103.636 63.7771 103.926 64.5765 103.926 65.4319C103.926 66.4836 103.5 67.4091 102.644 68.2038C101.793 68.9984 100.755 69.3957 99.5388 69.3957C99.043 69.3957 98.4911 69.2976 97.8831 69.1013C97.191 68.2038 96.8355 67.2829 96.8168 66.334C96.4146 66.334 96.1246 66.3387 95.9469 66.3481C95.8721 67.2549 95.7551 68.1804 95.5915 69.1293H92.8227V69.1433ZM99.7212 63.8753C99.4359 64.3755 99.2909 64.9411 99.2909 65.5768C99.2909 66.2125 99.4359 66.8015 99.7259 67.3437C100.016 67.8859 100.404 68.2739 100.895 68.5123C101.265 68.0308 101.447 67.4746 101.447 66.8482C101.447 66.2218 101.293 65.6329 100.989 65.0906C100.68 64.5531 100.259 64.1464 99.7212 63.8753ZM109.889 63.8145C109.678 65.1047 109.571 66.1564 109.571 66.9744C109.571 67.7924 109.604 68.5123 109.669 69.1433H106.998C106.723 67.8439 106.582 66.4509 106.582 64.9551C106.582 64.7027 106.592 64.324 106.606 63.8145C105.913 64.0202 105.488 64.4877 105.333 65.2215L104.122 65.1467L104.562 63.0152H112.709C112.545 63.9127 112.358 64.6466 112.148 65.2169L110.908 65.1421C110.941 65.0112 110.955 64.8803 110.955 64.7494C110.955 64.4316 110.857 64.1932 110.66 64.0389C110.464 63.894 110.207 63.8145 109.889 63.8145Z" fill="#E76C19"/>
</g>
<defs>
<clipPath id="clip0_5_1156">
<rect width="136" height="74" fill="white"/>
</clipPath>
</defs>
</svg>
