<svg width="136" height="74" viewBox="0 0 136 74" fill="none" xmlns="http://www.w3.org/2000/svg">
<g clip-path="url(#clip0_65_101)">
<path fill-rule="evenodd" clip-rule="evenodd" d="M54.1072 31.7669L53.9155 32.6316C53.6162 34.6556 53.4291 34.2022 53.7424 36.5721L53.9856 37.6659C53.995 37.694 54.0184 37.7407 54.0418 37.7781C54.327 35.8102 54.9771 33.1411 56.268 32.038C56.6561 32.4821 56.4036 33.3936 56.1604 34.1134C55.9172 34.8333 55.066 35.1838 54.907 35.6326C54.7807 35.9972 54.9584 36.0767 54.8602 36.6609C54.5843 38.2269 54.1914 37.7548 54.3878 40.4145C54.8368 39.3861 54.6638 38.4886 55.2811 37.8202L54.9117 40.5734C55.6319 39.5263 55.2578 37.4509 56.0902 36.4553C56.5533 38.8392 55.3747 39.6198 55.0146 41.9009C55.2578 42.1206 55.0052 41.9944 55.4402 42.0271C55.5477 41.5644 55.8283 41.2278 56.3101 40.9333C56.1183 41.6906 55.7816 41.9383 56.0388 42.6301L56.5673 42.6675C56.5907 42.6348 56.6187 42.546 56.6281 42.5694L57.0724 41.8074C57.2641 41.4709 57.3904 41.2746 57.5448 40.924C57.6804 40.952 57.7973 41.5223 58.0545 40.4519C58.3866 39.0683 58.2837 39.4983 58.6438 39.4095C58.873 39.8816 58.0826 41.3727 57.9563 41.5036C57.6196 41.8448 57.9844 41.6158 57.7693 41.555C56.9648 41.3353 58.3305 41.1156 57.6149 41.4522L56.3475 44.3503C57.3109 43.8875 56.9835 41.368 58.6719 43.0789C58.6392 43.6398 58.4427 44.2662 58.6438 44.6915C58.7514 44.4204 58.8683 44.0652 58.9806 43.7052C59.1817 43.0508 59.1349 42.9994 59.4623 42.6628C59.5605 42.3216 59.3921 42.6956 59.64 42.2842C59.7382 42.1206 59.8505 41.9944 59.944 41.8542C60.6923 40.7791 60.6269 40.1714 61.2769 39.2178C61.7961 39.3861 62.0206 39.6525 62.2684 40.1621C61.7587 40.0966 61.5763 39.9564 61.1694 40.12L61.001 40.8445C61.5716 41.1904 62.2264 41.354 63.0916 41.326C64.1626 41.2979 63.9194 40.7744 64.8501 40.4425C64.6911 41.0829 64.2889 41.2886 64.2889 42.1767C65.1073 41.8729 64.4105 41.8261 66.0287 41.6766C66.922 41.5971 66.95 41.2933 67.675 41.1343L67.8199 42.7189C68.8442 43.6678 70.5326 44.1586 72.263 44.4391C73.2171 44.5934 74.2086 44.6308 75.2235 44.6167C76.1776 44.6074 77.3889 44.2568 77.9876 44.2895L78.3617 43.995C78.3898 43.9763 78.4272 43.9576 78.4599 43.9389L79.6712 43.2238C80.1717 42.8592 80.4991 42.574 80.9948 42.0318C83.8945 38.886 84.6896 34.4827 83.5812 30.1028C82.7861 29.9859 83.1088 30.6263 82.6879 29.7008C81.3596 26.7653 81.2006 25.4705 78.198 23.2361C73.8999 20.0342 68.4467 20.2539 63.3208 22.3013C59.9393 23.6522 58.5737 24.6805 56.3615 27.7703C55.8517 28.4808 55.5524 28.794 55.1034 29.6213C54.7947 30.1729 54.5328 31.3509 54.1072 31.7669Z" fill="#E76C19"/>
<path fill-rule="evenodd" clip-rule="evenodd" d="M89.3104 13.9157C89.4132 13.5651 89.474 13.3781 89.6377 13.1491L90.054 12.7424C89.9932 13.5745 89.9417 13.6586 89.3104 13.9157ZM92.6637 13.1164C92.5234 12.8686 92.486 13.3688 92.5374 12.6723L92.963 11.5645C93.2857 11.9758 93.1174 12.8125 92.6637 13.1164ZM90.0961 8.18491L89.8576 10.1201C89.7032 11.9478 89.0531 14.0232 87.5893 14.4953C87.7202 13.9671 87.9774 13.6633 87.781 13.2473C87.6781 13.3127 86.7755 14.5 86.5977 14.7057C86.116 14.6542 85.7045 14.4673 85.1198 14.5561C84.8673 14.9487 84.9749 14.8459 84.9141 15.3788C84.1003 15.5003 83.5811 15.7995 82.9077 15.7574C82.1032 15.706 81.2474 15.5003 81.0088 16.309C81.6496 16.5707 82.7346 16.4959 83.3239 16.7484C82.1266 17.141 80.9854 16.5614 80.8358 18.1366L81.9629 18.1927C82.0144 18.8658 82.1032 18.6415 81.6309 18.9079C81.4017 19.0388 81.2754 18.9593 80.948 19.2819C81.9582 21.189 81.8554 20.0298 82.4072 20.974C82.931 21.8715 82.8983 22.5119 83.2584 23.3486C83.4362 23.7599 84.3856 24.7883 84.6662 25.0547C84.9468 25.3165 85.2368 25.5969 85.5361 25.8166C86.1909 26.2981 86.1534 25.9896 86.6679 26.2327L86.7381 27.1208C87.7062 28.0744 87.3507 28.9251 90.9145 26.5692C92.327 25.6343 93.3559 24.5873 94.3801 23.3673C95.4511 22.0912 96.3912 21.2311 97.0273 19.3567C97.5511 17.8048 97.9299 15.1637 96.9524 13.8689C96.6297 14.6916 96.9291 15.9116 95.989 17.7393C95.7411 18.2208 95.6943 18.4498 95.2267 18.5199C94.7777 16.5941 96.0919 16.323 96.279 15.6779L96.3351 12.1628C96.2696 12.3591 96.2602 12.5321 96.1948 12.7518C96.1246 12.9948 96.1761 12.8967 96.0685 13.1117C95.9329 13.3922 96.0077 13.266 95.844 13.4576L95.8814 11.7702C95.3295 12.5928 95.83 14.2008 95.1752 15.0936C94.469 13.8643 95.5961 12.2423 95.671 10.6483C95.4792 10.7418 95.3015 10.7698 95.222 10.7979L94.5812 11.8543C94.338 11.284 95.6756 10.2603 94.1369 10.3398C93.8423 10.9334 93.7768 11.3541 93.3699 11.7421C93.4027 10.4847 94.0902 9.95182 94.2398 8.97488C93.8283 9.42362 93.8984 9.72278 93.6131 10.1762C93.1969 10.8446 92.9724 10.5127 92.2802 10.3398L92.2428 9.05434L91.9014 9.95182C91.7283 10.695 91.2232 11.3354 90.4328 11.7515C90.5404 10.6717 91.2934 8.52614 90.966 7.5305C90.2036 7.45571 90.5638 7.66138 90.0961 8.18491Z" fill="#E76C19"/>
<path fill-rule="evenodd" clip-rule="evenodd" d="M42.153 13.9108C42.7844 13.9249 43.7385 13.9482 44.0144 14.4016C43.7198 14.6073 44.3465 14.5886 43.5561 14.5606L42.616 14.2801C42.4336 14.196 42.5646 14.2754 42.4149 14.1773C42.1904 14.023 42.3074 14.0838 42.153 13.9108ZM44.8703 10.5967C43.7432 10.5126 43.5467 10.4471 42.5693 10.7977L45.3801 11.2137L42.6301 11.3119C43.3644 11.6625 44.9779 11.3726 45.8759 11.7653C44.6552 12.5693 43.0136 11.5362 41.4141 11.5456C41.704 12.1813 42.1764 12.1205 42.6581 12.6301C41.9893 12.5366 41.7742 12.2701 41.2878 12.4571C40.8716 13.2564 41.4702 13.1349 42.2232 13.5182C42.1811 13.5509 42.5365 14.0651 40.9744 13.434C40.8809 13.3966 40.5021 13.233 40.4366 13.2143C39.6088 12.9947 40.0531 13.0788 39.8567 13.2845C40.3805 13.3265 41.4468 13.4901 41.4421 14.2474C41.4421 14.4858 41.3392 14.5652 41.2504 14.9345L39.9455 15.0187C40.446 15.3459 40.8856 15.3131 41.3252 15.4393C42.3074 15.7151 42.1016 16.5378 43.6824 16.9445C43.8928 17.0006 44.2109 17.0333 44.3933 17.1034C44.9218 17.3091 44.7908 17.2577 44.9405 17.6971C43.9209 17.4634 44.2389 17.0333 42.0455 16.622L38.6921 16.3602C38.6594 16.3696 38.6033 16.3836 38.5658 16.4023C38.4021 17.3512 39.9175 17.2296 41.3205 17.3605C43.3877 17.5241 45.1603 18.1224 45.8244 19.5107C45.3193 19.3892 44.9311 19.0199 44.44 19.2817C44.7066 19.5668 45.6093 20.0997 45.9507 20.2727C45.9179 20.684 45.7309 21.1935 45.773 21.5067C45.8712 22.1985 45.9741 21.9321 46.7083 22.0349L47.1714 23.498C47.176 23.5447 47.3117 23.727 47.0498 24.0495C47.2555 25.1013 46.9328 25.5921 47.8869 25.8585L48.1021 23.6102C48.5744 24.302 47.8916 25.7417 49.6221 25.9473L49.6595 24.6619C50.5762 24.76 50.3376 25.0779 50.6463 25.7837C51.2403 25.6529 51.736 25.1994 51.9792 24.7367C52.2786 24.1758 51.6986 24.5871 52.5638 24.1524C52.9661 23.9514 53.1064 23.8439 53.4618 23.7784C54.1821 23.0726 54.14 23.9888 55.9546 22.2219C56.5532 21.6376 57.3717 20.7775 57.4138 19.7024C60.9355 19.3658 58.2556 16.3368 56.9929 14.7195C55.3606 12.6301 52.6667 11.2838 51.9979 10.4144C51.8576 10.4004 46.6803 8.12396 44.5523 10.1106C46.1939 10.2041 46.9609 10.176 48.4482 10.8491C48.9673 11.0828 49.1918 11.1156 49.2947 11.5643C48.219 11.8681 47.5689 11.5877 46.9141 11.0361C46.0115 10.2742 46.1939 10.8912 44.8703 10.5967Z" fill="#E76C19"/>
<path fill-rule="evenodd" clip-rule="evenodd" d="M65.734 15.0796C65.6826 14.9674 65.3459 15.3928 65.706 14.5514C65.8229 14.2803 65.8977 14.2522 66.1222 14.1541C66.0568 14.6823 66.1363 14.7804 65.734 15.0796ZM65.9726 3.84241C65.3786 3.81436 64.7332 2.75795 64.5508 2.25312C65.112 2.51956 66.038 3.23006 65.9726 3.84241ZM64.1392 1.58468C64.0036 2.44477 64.0223 2.13626 63.5593 2.62239C62.8156 2.52423 62.8344 2.25312 62.217 2.02408C62.4228 2.50554 62.7174 2.61305 63.1477 3.09451C63.8539 3.88915 63.1805 4.59498 64.3824 5.84304C65.0606 6.54419 65.1354 6.55822 64.8454 6.97424C64.4432 6.58159 64.2842 5.91315 63.9942 5.50181C63.592 4.93621 63.4049 4.78196 62.8577 4.2631C62.3573 3.78631 60.9402 2.28584 60.1592 2.47749C60.0563 3.55727 61.5061 3.96394 62.072 4.84272C62.3994 4.92219 62.8858 5.28211 63.0121 5.64671C64.0316 6.11883 64.7285 7.89976 64.6303 9.02161C64.1766 8.62429 64.2936 8.19892 63.5359 8.03065C63.7557 8.75517 64.1158 9.02629 64.2234 9.94246C63.9381 10.1294 63.5967 10.279 63.4424 10.6623C63.1851 11.3167 63.4891 11.1765 63.8399 11.5925C63.4845 14.3691 62.0019 14.0419 62.6286 15.3881C63.3067 15.2105 63.8773 14.0886 64.2702 13.6539C64.1112 14.4906 62.9326 15.4442 64.1065 16.4539C64.7051 16.1734 64.359 15.8836 64.9951 15.4816C65.5142 16.0612 65.2336 16.2622 65.0746 16.9727C66.6133 17.2438 66.7162 16.6689 67.3476 16.6268C68.1894 16.5707 69.0968 16.94 69.7609 17.0569C71.1219 17.2953 73.3387 16.6736 74.0215 15.7667C76.1729 16.0285 76.7575 16.8325 76.6266 12.3311C76.5517 9.75549 75.7894 8.72713 75.4199 6.66573C74.985 6.15622 75.1721 5.16525 73.7409 3.44041C72.4127 1.8371 71.959 1.8558 71.206 1.09855L68.9331 0.476857C69.368 1.11257 71.9123 2.66914 72.0572 4.32387C70.57 4.35191 70.1537 2.11756 69.9339 1.92591L68.6618 0.977015C68.2502 0.649809 67.8387 0.266511 67.1745 0.135628C67.4972 0.972341 68.0211 0.776017 68.3859 1.62208L66.473 0.345975C66.9781 1.2528 68.5075 1.4538 68.9658 2.67381C66.8846 2.26247 66.6367 0.243139 65.2851 -0.00927734L65.8697 1.55196C65.2056 1.13127 65.4768 0.579694 64.5555 0.659158C64.2515 1.43043 64.8548 1.52859 65.1635 2.45412C64.5648 2.16431 64.6116 1.86047 64.1392 1.58468Z" fill="#E76C19"/>
<path fill-rule="evenodd" clip-rule="evenodd" d="M90.1475 33.9079C90.6901 34.1042 90.7929 34.2257 91.0174 34.6605C90.4562 34.567 90.2785 34.4548 90.1475 33.9079ZM104.188 39.6059L104.557 38.8767C104.089 39.0123 103.163 39.8817 102.392 40.0781L104.276 38.4233C103.336 38.6243 102.813 39.9892 101.377 40.2978C101.826 39.2787 101.98 39.2413 102.972 38.7552C103.64 38.428 104.566 38.0307 104.856 37.3809C104.291 37.409 103.575 37.6567 103.182 37.4885C104.047 37.1239 104.211 37.1566 104.309 36.8294C104.618 35.8244 103.243 36.5536 102.649 36.6237C102.261 37.0163 102.177 36.7686 101.859 36.8761L101.47 37.1379C101.157 37.2828 101.307 37.2454 100.956 37.1706C101.279 36.404 102.064 36.1329 102.864 36.016C102.724 36.4881 103.051 36.432 102.714 36.4367C103.369 36.0207 104.585 35.6701 105.053 35.2962C104.595 35.385 104.066 35.6795 103.706 35.7262C102.93 35.8244 103.009 35.4925 102.803 34.9596C103.06 34.4034 103.294 34.5015 103.631 33.8985C103.042 34.0855 102.873 34.352 102.438 34.5483C101.751 34.8615 101.583 34.6277 100.788 34.6651C99.6604 34.7166 98.7951 35.787 98.1825 35.2588C98.7437 34.8381 99.1553 35.2588 101.194 34.0434C102.083 33.5152 102.986 32.6738 103.771 32.2999L103.659 31.739C102.144 31.5473 99.043 35.815 96.3725 34.5202C96.77 34.2304 97.2705 34.2491 97.5043 33.7817L95.6148 33.9687C95.3576 33.5947 95.3015 33.188 94.9601 32.9403C94.338 32.4822 94.4877 32.987 93.8329 33.1319C93.1688 32.5617 92.7011 32.6365 92.2942 32.0709C91.8312 31.4164 91.6582 30.9771 90.5965 30.9771C90.6947 31.9166 91.4524 32.3046 91.9107 33.0431C91.1344 32.7019 90.6386 31.323 89.2028 32.155C89.432 33.0011 89.6752 32.4775 89.9511 33.3142C88.9549 33.6274 89.2636 33.2021 88.375 33.0385C87.9166 34.7913 88.8661 34.7072 87.3086 37.3202C86.6866 38.3626 86.7568 40.7138 87.4256 42.06C85.363 44.4299 88.2581 44.874 89.5302 45.1778C91.5506 45.6593 93.3185 45.7154 95.5119 45.5144C98.2246 45.2619 100.764 44.6356 102.41 42.6536C102.696 42.3124 103.467 41.083 103.542 40.6483C102.672 41.27 100.17 43.3501 99.0196 42.8032C99.3003 41.4196 101.756 41.5365 101.765 41.5365C102.074 41.2513 101.947 41.2607 102.233 40.9989L104.094 39.6667C104.122 39.6387 104.16 39.62 104.188 39.6059Z" fill="#E76C19"/>
<path fill-rule="evenodd" clip-rule="evenodd" d="M45.1088 39.0686C45.8104 39.2182 45.787 39.0733 45.9367 39.7184C45.1042 39.4706 45.5719 39.6015 45.1088 39.0686ZM40.8248 28.3877C39.9362 29.1029 36.0824 28.4251 33.1266 31.9402C32.7197 32.4264 31.9433 33.838 31.9246 34.427C32.7524 33.4126 34.6419 31.8981 36.1806 31.6971C36.1058 33.3005 33.8702 33.1929 33.5054 33.5015C33.3838 33.6043 33.3651 33.7913 32.3923 34.6046C31.9293 34.9926 31.5131 35.2917 31.354 36.0163C32.107 35.6657 32.2193 35.245 32.9255 34.9412C32.5607 35.7218 31.8591 36.1098 31.4523 36.7081C32.4157 36.2967 32.7431 35.0206 34.1041 34.5251C33.7767 35.8854 33.0237 35.9368 31.7282 36.8951C31.2792 37.2269 31.1015 37.3298 30.9425 37.8533L32.57 37.4139C32.2707 37.7692 31.9948 37.9328 31.5505 37.9889C31.4102 39.4239 32.1725 38.6666 32.9535 38.3768C32.9863 38.3394 33.0377 38.2413 33.0611 38.274C33.0798 38.3067 33.1359 38.1992 33.164 38.1852C33.5101 37.9795 33.5428 37.9935 33.9965 38.059C34.2771 37.844 34.3286 37.6944 34.8009 37.6336C34.7588 38.1945 34.9272 37.9 34.394 38.2366C34.1275 38.4049 33.8936 38.5498 33.6878 38.6526C33.5101 38.7928 33.9497 38.7134 33.2763 38.9097C33.0424 38.9798 32.7852 38.9611 32.5373 38.9705L30.9939 39.8072C32.1444 39.6529 32.7244 38.4142 33.2903 40.1391L32.5607 41.0365C33.1874 40.8496 33.2529 40.6299 33.6925 40.3541C34.511 39.8446 35.1938 40.499 36.4893 39.6109C36.7886 39.4052 36.9663 39.1388 37.3452 39.1247C38.0514 39.092 37.565 39.092 37.7895 39.2556C36.812 40.0035 37.3218 38.7741 33.613 41.8966C33.1219 42.308 32.5934 42.4576 32.6449 43.313C34.5531 43.4111 36.1105 39.0733 39.8005 39.7604L38.5658 40.5364L38.94 40.7795C39.1645 40.5831 38.7857 40.8122 39.23 40.5738C39.6977 40.3214 40.0531 40.312 40.5909 40.3167C40.8341 40.6486 40.9557 41.0646 41.3018 41.2282C41.9613 41.5367 41.7041 41.102 42.3682 40.9103C42.9154 41.2516 43.6543 41.3918 44.0004 41.7657C44.5383 42.35 44.5757 42.7427 45.8104 42.7053C45.5391 41.6769 44.5476 41.317 44.3559 40.8122C45.2445 41.0693 45.4269 42.2332 47.0732 41.4526C46.9001 40.6906 46.4885 41.0926 46.2407 40.3073C47.0919 39.882 46.9656 40.3401 47.8074 40.4195C48.1582 37.6102 46.9796 39.5781 48.4482 36.0116C48.7662 35.2403 48.7755 32.4217 47.8308 31.4214C48.0366 30.8745 48.4248 30.5145 48.2564 29.6825C48.1208 29.0094 47.6718 28.9393 47.3631 28.8084L46.9001 28.584C46.0676 28.7944 44.9545 28.3924 44.0051 28.3503C42.9294 28.2849 41.8116 28.4859 40.8248 28.3877Z" fill="#E76C19"/>
<path d="M11.3602 50.4224C11.3602 50.0905 11.3135 49.8054 11.2152 49.567H16.43C16.8696 50.7543 17.197 52.208 17.4075 53.9282C17.6226 55.6483 17.7349 57.2844 17.7442 58.8456H13.5163C13.4321 56.6206 13.072 54.4751 12.4359 52.409C11.3743 54.5125 10.8037 56.658 10.7148 58.8456H7.12762C6.80959 56.4196 6.20159 54.2694 5.29894 52.3903C4.6395 53.9609 4.31212 55.4193 4.31212 56.7702C4.31212 57.4994 4.3963 58.1912 4.56935 58.8503H0.126277C0.0420922 58.3361 0 57.6677 0 56.8309C0 55.9942 0.1216 55.1575 0.364799 54.3161C1.23003 54.0544 2.06252 53.629 2.86227 53.0354C3.66202 52.4417 4.25132 51.792 4.62547 51.0861C4.30744 50.5533 3.9707 50.0484 3.61993 49.567H9.4006C9.86361 50.8431 10.2097 52.2267 10.4436 53.7225C11.0562 52.5726 11.3602 51.4741 11.3602 50.4224ZM31.2091 58.696V58.8456H26.9624C26.9156 58.1398 26.8081 57.4106 26.6537 56.658C25.8961 57.4386 25.0449 58.1678 24.0908 58.8456H19.8301C19.7459 58.3408 19.7038 57.6677 19.7038 56.8309C19.7038 55.9942 19.8254 55.1575 20.0686 54.3161C20.9479 54.0544 21.7897 53.6197 22.6035 52.998C23.4126 52.3809 24.0019 51.7125 24.3667 50.9927C24.0393 50.4738 23.6886 49.997 23.3238 49.5623H29.3991C30.6057 52.2267 31.2091 55.2697 31.2091 58.696ZM26.3264 55.3024C26.0083 54.2039 25.5968 53.1616 25.0823 52.1846C24.507 53.8908 24.1796 55.5034 24.0955 57.0273C24.97 56.5692 25.7137 55.9942 26.3264 55.3024ZM40.8341 50.6982C40.4085 50.6234 39.997 50.586 39.5994 50.586C39.2019 50.586 38.7248 50.6561 38.1636 50.7917C37.9812 51.5723 37.8877 52.3295 37.8877 53.0728C37.8877 54.9892 38.7295 56.4617 40.4132 57.49C41.5357 56.7375 42.5459 55.7932 43.4485 54.6714C43.486 55.1669 43.514 55.9194 43.5421 56.9338C42.6394 57.649 41.7181 58.2146 40.778 58.6212C39.838 59.0279 38.6687 59.2336 37.2657 59.2336H36.8447C35.7457 58.7521 34.8851 58.0416 34.2584 57.1021C33.6317 56.1625 33.3183 55.1715 33.3183 54.1338C33.3183 52.7502 33.8796 51.5723 35.002 50.6C36.1245 49.6277 37.7521 49.1416 39.8847 49.1416C41.082 49.1416 42.3308 49.2959 43.6356 49.6044C43.4392 50.385 43.196 51.1189 42.906 51.8107C42.139 51.8855 41.3439 51.9229 40.5255 51.9229C40.6424 51.577 40.7453 51.1703 40.8341 50.6982ZM52.8164 50.773C52.4984 52.7268 52.3394 54.3208 52.3394 55.5595C52.3394 56.7982 52.3861 57.892 52.4843 58.8456H48.4949C48.0787 56.8777 47.8729 54.7649 47.8729 52.5025C47.8729 52.1192 47.8869 51.5442 47.9103 50.7776C46.872 51.0861 46.2407 51.7966 46.0068 52.9091L44.1968 52.797L44.8563 49.567H57.0209C56.7777 50.9272 56.4971 52.0397 56.1791 52.9045L54.3317 52.7923C54.3785 52.596 54.4065 52.395 54.4065 52.1986C54.4065 51.7172 54.2616 51.3573 53.9669 51.1235C53.6769 50.8898 53.2888 50.773 52.8164 50.773ZM64.6677 53.2971L66.3888 53.4093C66.5618 53.4093 66.6881 53.4046 66.7723 53.3906L65.9118 55.022H65.7481C65.5142 55.022 65.1868 54.9565 64.7612 54.8256C64.3356 54.6948 64.0316 54.6293 63.8446 54.6293C63.3441 54.6293 62.9466 54.9565 62.6566 55.6109C62.6099 56.2186 62.5724 56.8216 62.5491 57.4293C63.1851 57.5508 63.6855 57.6162 64.0503 57.6162H64.214C64.7379 57.6162 65.1541 57.4994 65.4674 57.2657C65.7808 57.0319 66.0006 56.6112 66.1363 56.0036L68.3297 56.0971C68.1473 57.1628 67.9041 58.0743 67.6001 58.8409H58.6158C58.3726 57.1722 58.251 55.5128 58.251 53.8674C58.251 52.222 58.3352 50.787 58.5082 49.5623H68.3157C68.0959 50.8992 67.8994 51.8387 67.7311 52.3809C67.0108 52.4183 66.3514 52.4417 65.7574 52.4557C65.8556 52.1706 65.9024 51.9042 65.9024 51.6564C65.9024 51.0628 65.4628 50.7636 64.5835 50.7636C64.2561 50.7636 63.8867 50.801 63.4844 50.8758C63.2179 52.0491 63.0074 53.0821 62.8624 53.9749C63.3441 53.5262 63.9521 53.2971 64.6677 53.2971ZM74.7324 56.5224C74.7324 57.2283 74.7652 57.9995 74.826 58.8409H70.7991C70.2987 56.873 70.0508 54.7836 70.0508 52.5679C70.0508 51.4414 70.1163 50.4411 70.2519 49.5623H80.167C80.5224 50.9599 80.7142 52.624 80.7516 54.5545C78.9463 55.3725 76.9399 55.9007 74.7324 56.1485V56.5224ZM74.7511 54.8724C75.5322 54.7742 76.1823 54.5732 76.7108 54.2787C76.5143 52.9699 75.9905 51.806 75.1393 50.7917C74.9382 52.0163 74.8119 53.3766 74.7511 54.8724ZM90.1709 58.7895C89.0859 57.3778 88.5434 55.9335 88.5434 54.447C88.5434 52.9606 89.1513 51.7078 90.372 50.6795C91.5927 49.6511 93.1548 49.1416 95.0536 49.1416C96.0638 49.1416 97.074 49.2959 98.0702 49.6044C98.9495 50.7309 99.3891 51.9369 99.3891 53.2223C99.3891 54.8443 98.7343 56.2513 97.4295 57.4526C96.1246 58.654 94.5438 59.2523 92.6918 59.2523C91.9014 59.2523 91.0642 59.098 90.1709 58.7895ZM92.9537 50.7543C92.5281 51.4975 92.3129 52.3669 92.3129 53.3719C92.3129 54.3722 92.5281 55.2978 92.963 56.1438C93.398 56.9899 93.992 57.6022 94.7449 57.9715C95.3202 57.2283 95.6055 56.3682 95.6055 55.3912C95.6055 54.4143 95.3716 53.5028 94.8993 52.6661C94.4316 51.8247 93.7815 51.189 92.9537 50.7543ZM108.518 51.6658C108.518 51.0721 108.079 50.773 107.2 50.773C106.872 50.773 106.503 50.8104 106.1 50.8851C105.492 53.4187 105.184 55.6717 105.184 57.6396C105.184 58.1818 105.198 58.5838 105.221 58.8456H101.251C101.007 57.1768 100.886 55.5174 100.886 53.8627C100.886 52.2127 100.97 50.7776 101.143 49.567H110.932C110.726 50.7776 110.53 51.7172 110.347 52.3856C109.725 52.3996 109.066 52.423 108.373 52.4604C108.472 52.1753 108.518 51.9135 108.518 51.6658ZM123.779 51.1095C123.779 53.5355 123.545 56.1111 123.082 58.8456H118.709C118.906 57.3872 119.032 55.8166 119.093 54.1338C118.457 53.7365 117.751 53.4981 116.97 53.4093C116.895 55.2276 116.703 57.0413 116.385 58.8456H112.232C112.391 57.6349 112.47 56.1812 112.47 54.4938C112.47 52.8063 112.363 51.1656 112.143 49.567H116.974C116.998 50.0718 117.012 50.8291 117.012 51.8294C117.718 52.0537 118.419 52.3529 119.116 52.7362C119.116 51.5863 119.074 50.5299 118.99 49.5623H123.746C123.765 50.2588 123.779 50.773 123.779 51.1095ZM125.79 52.8905C125.79 51.9135 125.926 50.8057 126.193 49.5716H135.743C135.916 50.8805 136 52.3062 136 53.8487C136 55.3866 135.822 57.0553 135.472 58.8503H131.482C131.557 57.9855 131.59 57.2329 131.59 56.5972C131.59 55.9615 131.585 55.5361 131.571 55.3258C130.533 55.7699 129.887 56.9478 129.63 58.8503H124.911C125.009 57.4526 125.257 56.2326 125.659 55.1949C127.1 55.1342 128.363 54.9612 129.448 54.6761C128.035 54.3816 126.815 53.9656 125.79 53.4327V52.8905ZM131.187 50.8104C130.542 51.6517 130.107 52.4791 129.887 53.2971C130.304 53.6804 130.846 53.9235 131.515 54.0216C131.445 52.9699 131.332 51.8995 131.187 50.8104Z" fill="white"/>
<path d="M29.0623 63.8146C28.8519 65.1047 28.7443 66.1564 28.7443 66.9744C28.7443 67.7925 28.7771 68.5123 28.8425 69.1434H26.172C25.8961 67.8439 25.7558 66.4509 25.7558 64.9551C25.7558 64.7027 25.7651 64.3241 25.7792 63.8146C25.087 64.0202 24.6614 64.4877 24.507 65.2216L23.2957 65.1468L23.7353 63.0153H31.8825C31.7188 63.9127 31.5318 64.6466 31.3213 65.2169L30.0819 65.1421C30.1147 65.0112 30.1287 64.8803 30.1287 64.7494C30.1287 64.4316 30.0305 64.1932 29.834 64.0389C29.6376 63.894 29.3804 63.8146 29.0623 63.8146ZM36.9991 65.4786L38.1496 65.5534C38.2618 65.5534 38.3507 65.5488 38.4068 65.5394L37.8316 66.6145H37.7193C37.565 66.6145 37.3452 66.5725 37.0599 66.4883C36.7746 66.4042 36.5688 66.3574 36.4472 66.3574C36.1105 66.3574 35.8486 66.5725 35.6521 67.0072C35.6194 67.4092 35.596 67.8065 35.5773 68.2085C36.0029 68.2879 36.335 68.33 36.5828 68.33H36.6951C37.0458 68.33 37.3265 68.2505 37.5322 68.0963C37.7427 67.942 37.8877 67.6616 37.9812 67.2643L39.4498 67.325C39.3282 68.0262 39.1645 68.6292 38.9587 69.1387H32.9442C32.7805 68.0355 32.701 66.9417 32.701 65.8573C32.701 64.7728 32.7571 63.8239 32.874 63.0153H39.4404C39.2954 63.8987 39.1645 64.5157 39.0476 64.8757C38.5658 64.899 38.1262 64.9177 37.724 64.9224C37.7895 64.7354 37.8222 64.5578 37.8222 64.3942C37.8222 64.0015 37.5276 63.8052 36.9383 63.8052C36.7185 63.8052 36.4706 63.8286 36.204 63.88C36.0263 64.656 35.886 65.3384 35.7878 65.9227C36.1151 65.6329 36.5174 65.4786 36.9991 65.4786ZM48.4528 63.0199L48.4762 64.0623C48.4762 65.6516 48.3219 67.3484 48.0085 69.1434H45.0855C45.2725 67.8112 45.3661 66.493 45.3661 65.1748C45.3661 64.7167 45.352 64.2633 45.3287 63.8146H45.1182C44.6505 63.8146 44.267 63.8379 43.9536 63.8894V64.282C43.9536 65.9227 43.8133 67.5447 43.5374 69.1434H40.7453C40.8575 68.2692 40.9183 67.3157 40.9183 66.278C40.9183 65.2403 40.8435 64.1558 40.6985 63.0199H48.4528ZM57.3483 69.1434H54.5188C54.3738 67.5027 53.9576 66.0443 53.2701 64.7728C52.8304 65.7778 52.6106 66.6987 52.6106 67.54C52.6106 68.1103 52.7182 68.6479 52.9286 69.1434H49.7437C49.6875 68.8068 49.6595 68.3581 49.6595 67.7971C49.6595 67.2315 49.739 66.6893 49.8933 66.1564C50.4873 65.9835 51.0626 65.6937 51.6098 65.2823C52.157 64.871 52.5498 64.4316 52.7837 63.9641C52.6059 63.679 52.3721 63.3658 52.0868 63.0199H56.1417C56.9414 64.7588 57.3483 66.7968 57.3483 69.1434ZM59.3454 69.106C58.6205 68.1758 58.2556 67.2222 58.2556 66.2406C58.2556 65.259 58.6625 64.4316 59.481 63.7538C60.2995 63.076 61.3424 62.7395 62.6192 62.7395C63.2974 62.7395 63.9708 62.8423 64.6396 63.0433C65.2289 63.7865 65.5236 64.5812 65.5236 65.4319C65.5236 66.5023 65.0886 67.4325 64.214 68.2225C63.3395 69.0125 62.2825 69.4098 61.0431 69.4098C60.5052 69.4098 59.9393 69.307 59.3454 69.106ZM61.2068 63.8052C60.9215 64.296 60.7765 64.871 60.7765 65.5301C60.7765 66.1892 60.9215 66.8015 61.2115 67.3624C61.5014 67.9233 61.899 68.3253 62.4041 68.5684C62.7876 68.0776 62.9793 67.512 62.9793 66.8669C62.9793 66.2219 62.8203 65.6236 62.507 65.0673C62.1983 64.5111 61.7633 64.0904 61.2068 63.8052ZM71.1172 69.1434C71.2247 68.3253 71.2762 67.3624 71.2762 66.2499C71.2762 65.1374 71.2013 64.0623 71.0564 63.0246H74.2881C74.2975 63.1695 74.3021 63.5622 74.3021 64.1979C74.3021 64.8336 74.2273 65.6796 74.0823 66.7314C74.7371 66.1377 75.3217 65.4319 75.8362 64.6232C75.8268 64.1184 75.7847 63.5809 75.7005 63.0199H78.8715C78.8902 63.5107 78.8949 63.8753 78.8949 64.1231C78.8949 65.7077 78.7405 67.3811 78.4272 69.1434H75.4994C75.6631 68.0496 75.7707 67.0633 75.8175 66.1798C75.3591 66.8903 74.6108 67.8766 73.5632 69.1434H71.1172ZM91.9902 63.2537C91.7143 63.3191 91.4805 63.3518 91.2934 63.3518C91.1063 63.3518 90.9239 63.3378 90.7555 63.3144C90.503 63.6182 90.2738 64.0202 90.068 64.5251C89.8622 65.0299 89.7126 65.4833 89.6097 65.8853C89.5068 66.2873 89.3946 66.7734 89.2729 67.3531C88.6509 70.3073 88.0336 72.4061 87.4115 73.6448C87.0046 73.7663 86.4949 73.8878 85.8915 74C86.71 72.6024 87.3694 70.9851 87.8745 69.1387H85.3397C84.6943 67.0492 84.3575 65.0065 84.3341 63.0153H87.912C87.7389 63.7725 87.6547 64.5812 87.6547 65.4319C87.6547 66.2826 87.795 67.2596 88.071 68.3534C88.1271 68.1337 88.2253 67.7457 88.3656 67.1941C88.5059 66.6426 88.6088 66.2499 88.6696 66.0115C88.7351 65.7731 88.8333 65.4413 88.9689 65.0065C89.1046 64.5718 89.2262 64.2493 89.3384 64.0343C89.4507 63.8192 89.5863 63.5762 89.75 63.3051C90.0446 62.8236 90.4328 62.4964 90.9145 62.3234C91.0549 62.2814 91.3355 62.2393 91.7611 62.1972C92.1867 62.1505 92.4907 62.071 92.6777 61.9448C92.4579 62.459 92.2288 62.8937 91.9902 63.2537ZM92.8227 69.1434C92.935 68.2786 92.9958 67.3203 92.9958 66.2639C92.9958 65.2122 92.9163 64.1278 92.7619 63.0199H95.9937C96.0077 63.3284 96.0171 63.7585 96.0171 64.3101C96.0171 64.8616 96.0124 65.259 96.003 65.502C96.3632 65.502 96.6672 65.516 96.9197 65.5488C97.1255 64.6653 97.6259 63.9782 98.4257 63.478C99.2254 62.9779 100.114 62.7301 101.096 62.7301C101.718 62.7301 102.368 62.833 103.056 63.034C103.636 63.7772 103.926 64.5765 103.926 65.4319C103.926 66.4836 103.5 67.4092 102.644 68.2038C101.793 68.9985 100.755 69.3958 99.5388 69.3958C99.043 69.3958 98.4911 69.2976 97.8831 69.1013C97.191 68.2038 96.8355 67.283 96.8168 66.3341C96.4146 66.3341 96.1246 66.3387 95.9469 66.3481C95.8721 67.2549 95.7551 68.1804 95.5915 69.1293H92.8227V69.1434ZM99.7212 63.8753C99.4359 64.3755 99.2909 64.9411 99.2909 65.5768C99.2909 66.2125 99.4359 66.8015 99.7259 67.3437C100.016 67.886 100.404 68.2739 100.895 68.5123C101.265 68.0309 101.447 67.4746 101.447 66.8482C101.447 66.2219 101.293 65.6329 100.989 65.0907C100.68 64.5531 100.259 64.1464 99.7212 63.8753ZM109.889 63.8146C109.678 65.1047 109.571 66.1564 109.571 66.9744C109.571 67.7925 109.604 68.5123 109.669 69.1434H106.998C106.723 67.8439 106.582 66.4509 106.582 64.9551C106.582 64.7027 106.592 64.3241 106.606 63.8146C105.913 64.0202 105.488 64.4877 105.333 65.2216L104.122 65.1468L104.562 63.0153H112.709C112.545 63.9127 112.358 64.6466 112.148 65.2169L110.908 65.1421C110.941 65.0112 110.955 64.8803 110.955 64.7494C110.955 64.4316 110.857 64.1932 110.66 64.0389C110.464 63.894 110.207 63.8146 109.889 63.8146Z" fill="#E76C19"/>
</g>
<defs>
<clipPath id="clip0_65_101">
<rect width="136" height="74" fill="white"/>
</clipPath>
</defs>
</svg>
