<svg width="735" height="484" viewBox="0 0 735 484" fill="none" xmlns="http://www.w3.org/2000/svg">
<g clip-path="url(#clip0_286_1109)">
<path d="M705.3 135.1C704.5 136.8 703.9 138 704.2 139.2C704.4 140.3 706.4 142.5 706.4 142.5C706.4 142.5 707.8 143.9 709.1 144.7C712.7 147.2 714.8 148.3 714.8 148.3L716.5 150.7C716.5 150.7 714.7 152.8 713.7 154.4C711.4 158 709.5 158.3 709.1 160.2C708.8 162.2 707.6 164.4 707.9 165.9C708.2 167.3 708.3 170 708.3 170C708.3 170 707 171 705.8 172.9C704.6 174.7 703.7 170.6 704.6 174.7C705.4 178.8 704.5 181.7 704.6 182.8C704.9 183.9 704.9 183.9 704.9 183.9L703.6 185.7C703.6 185.7 701.5 187.2 699.8 188C698 188.7 692.3 185.5 691.3 186.2C690.3 186.7 688.7 186.7 688.3 188.3C687.8 190 687.6 190.8 689.7 192C691.8 193.1 692.9 192.6 694.1 192.8C695.4 193.5 698.7 192.5 698.7 192.5L700.8 191.5C704.1 192.5 704.7 193.2 705.8 193C706.9 192.8 707.7 191.5 708.8 190.8L710.8 192.8C710.8 192.8 710.9 195.5 712 196.4C712.9 197.4 713.7 198.8 713.7 198.8C713.7 198.8 714.3 200.6 715.8 201.8C719.5 205 722.6 203 721.3 206.1C719.9 209.1 718.2 210.3 717.3 210.9C716.2 211.4 712 213.4 712 213.4C712 213.4 710.4 215.3 709.9 216.6C709.3 217.8 707.7 219.2 707.7 219.2C707.7 219.2 705.3 220.9 700.8 221.8C696.3 222.7 693.2 220.6 691.3 222.4C689.4 224.4 687.7 225.9 685.6 228.8C683.5 231.4 684.1 233.5 680.1 232.4C676 231.3 674.2 227.8 672 228.7C669.8 229.4 672.5 233.2 669.8 229.4C667.1 225.7 669 226.6 667.1 225.7C665.4 224.8 667.7 224.1 665.4 224.8C663.2 225.7 665.6 227.5 663.2 225.7C660.9 223.8 661.8 226.1 660.9 223.8C660.1 221.7 659.6 219.1 659.6 219.1C659.6 219.1 659.9 214.8 657.6 216.7C655.3 218.8 654.5 221.1 655.7 222.6C656.7 223.9 656.5 224.3 657.1 225.8C658.2 229 658.1 230.6 658.1 230.6C652.5 231.7 652.6 232 650.7 232.4C648.8 232.8 648.1 232.6 646.8 234C645.5 235.5 645.3 233.9 643.8 236.6C642.4 239.2 643.2 235.5 642.4 239.2C641.6 242.8 643.8 240.4 641.6 242.8C639.3 245.2 641.1 244.1 639.3 245.2C637.5 246.4 637.8 247.8 635.3 246.7C632.9 245.8 636.4 246.2 632.9 245.8C629.3 245.3 632.3 242.7 629.3 245.3C626.3 247.9 628.7 246.2 626.3 247.9C623.9 249.6 623.7 249.9 622.2 250.5C620.8 251.3 623.4 250.7 620.8 251.3C618.1 251.8 622 253.8 618.1 251.8C614.2 249.8 614.4 250.6 612.8 248.5C611.4 246.5 611.4 246.9 609.8 245.2C608.4 243.6 604.9 237.7 603 238.1C601.1 238.4 588.4 230.6 586.8 230.8C585.3 231.1 574 228.4 572.4 228.3C570.8 228.2 552.7 232.5 551.6 232.8C550.5 233 545.4 236.3 544.2 238.1C542.9 239.9 537.9 245.6 536.6 246.9C535.4 248.3 532.2 252.1 531 253.9C529.9 255.6 528.2 257.5 528.1 258.7C528 259.9 528.7 263.2 529.8 263.4C531 263.5 534.5 266.1 536.6 264.8C538.7 263.6 543.9 264.2 540 266.4C536.2 268.8 532.9 271.7 532.9 271.7L533.1 276.7C533.1 276.7 534.6 278.8 536.1 280.4C537.6 282.1 534 283.2 534 283.2L529.2 280.6L522.4 281.2L517.4 281.3C517.4 281.3 514.9 278.8 514 279.7C513 280.6 512.3 280.8 511.5 282.4C510.7 284.1 509.3 282.8 508.9 285.4C508.6 287.6 508.6 288 509.7 289.1C510.7 290.1 512.3 288.8 512.6 290C513.3 293.3 514.5 291.9 513.3 293.3C511.9 294.6 511.9 294.6 511.9 294.6L506.8 296.1C506.8 296.1 498.2 305.2 497.9 311.7C497.6 318.4 497.9 321.5 496 323.8C494.2 326.1 491.4 330 491.4 330C491.4 330 489.3 332.6 487 330.8C484.7 329.5 484.6 326.7 483 326.7C481.4 326.5 480.1 326 478.9 325.9C477.7 325.7 476.7 324.4 476.2 323.3C475.6 322.2 473.8 321 473.8 321L469.1 320.8C469.1 320.8 467.5 321.1 466.4 322.9C465.2 324.6 465.2 324.6 463.9 325.7C462.5 326.8 461.4 326.7 460.3 327.7C459.4 328.5 458.2 328.8 457.9 330.8C457.4 332.8 457.8 332.7 455.7 333.1C453.4 333.6 450.7 333.8 450.7 333.8L447.5 333.3L445.2 335.2C441.8 333.6 444.1 333.5 441.8 333.6C439.5 333.6 441.8 331.6 439.5 333.6C437.2 335.7 435.3 336 434.3 336.5C433.3 337.2 430.7 336.5 429.8 337.1C428.7 337.7 427.3 338.4 426.3 338.9C425.3 339.6 422.8 342.8 422.8 342.8C422.8 342.8 419.8 345 418.7 345.9C417.8 347 404.8 356.1 404.8 356.1L397 363L391.2 366.9L385.4 372.5C385.4 372.5 383.8 376.1 382.6 378.2C381.5 380.3 378.7 384 378.7 384C378.7 384 373.5 392.4 373.3 393.7C373.2 394.8 372.5 399.3 372.5 399.3C372.5 399.3 371.6 400.6 371.9 402.4C372.3 404.3 370.9 405.3 370.8 406.8C370.8 408.4 370.1 410.9 370.1 410.9C369.7 414.7 370.3 416.4 369.1 417.7C366.8 419.6 365.6 419.4 363.9 420.6C362.2 421.6 362.9 419.2 362.2 421.6C361.5 424.1 360 426 359 427.3C358.1 428.6 357.2 430 356.2 430.9C355.3 431.9 356.7 433.6 354.1 434.1C351.6 434.6 346.7 435.6 344.4 435.7C342.1 435.7 338.5 435.3 338.5 435.3C337.9 440.3 336.8 438.6 337 443C336.9 447.1 336.5 448.8 336.8 449.9C337 450.9 337.5 451.4 335.8 453.1C334.3 455 334.4 456.9 333.3 457.6C329 459.6 329.2 459.1 327.5 459.9C325.7 460.6 323.7 460.6 322.5 462C321.3 463.4 320.1 466 320.1 466L317.3 469.2C317.3 469.2 304.8 472.4 302.8 472.4C301 472.4 299.5 473 295.9 472.7C292.2 472.1 290.9 471.3 289 471.3C287 471.3 286.1 470 284.2 472.6C282.4 475.3 282.2 475.7 279.1 478.3C276.1 480.8 280.2 479.7 276.1 480.8C272.1 482.1 270.5 483.8 268 482.9C265.4 481.7 263.7 480.5 262.8 479.6C259.9 477.1 259.5 476.7 258.9 475.7C258.3 474.7 257.8 474 255.8 473.7C253.8 473.3 252.6 474.8 251.7 472.5C250.9 470.3 251.3 473.8 250.9 470.3C250.6 466.9 250.2 465 250.2 465C250.2 465 249.8 464.3 248.3 463.2C246.9 461.9 245.5 461 244.3 460.7C243.2 460.5 241.8 457.8 240 458.5C238.2 459.3 238 458.5 236.5 458.9C235 459.2 234.2 458.9 233.2 459.5C232.1 460 229.3 462.1 228.2 461.7C225.2 460.3 223.6 457.9 223.6 457.9C223.6 457.9 222.2 456.1 220.8 457.4C216.7 460.4 217.2 458.8 215.4 455.3C213.5 451.8 211.2 453.5 209.5 452.6C207.7 451.7 199.3 447.9 199.3 447.9L195 443.8C195 443.8 196.8 439.2 199.4 440.6C202.1 442.1 202.8 441.9 203.5 439.8C204.3 437.9 202.7 437.7 206.3 435.9C209.8 434 210.4 433.1 211.8 432.8C213.3 432.5 213.3 432.1 215.6 432.4C218 432.7 220.1 433.9 220.1 433.9C220.1 433.9 221.5 434.8 223.3 434.2C225.1 433.3 226.6 433 226.6 433C226.6 433 229.2 436 230.1 435.1C231.1 434.1 232.3 432.7 232.3 432.7C232.3 432.7 232.6 429.9 231.1 429.9C229.5 429.7 227.6 427.9 226.4 428.1C225.4 428.3 220.9 427.6 220.9 427.6L218.2 427.8C218.1 425.1 219.7 421.7 219.7 421.7C219.7 421.7 219.8 420.4 220.8 419.5C221.7 418.6 221.5 417.1 221.1 415.2C220.7 413.4 219.9 411.2 219.2 409.5C218.4 407.7 217.1 404.9 217.3 403.6C217.4 402.4 217.1 399 217.1 399C217.1 399 215.7 395.5 215.7 393.5C215.7 391.5 215.2 389 214.9 387.4C214.6 386 214.4 384.8 214.1 383.4C213.7 381.9 213.3 379.3 214.1 377.6C216.2 372.8 215.2 373.9 216.2 372.8C217.2 371.8 218.4 372 220.1 371.2C221.9 370.5 222.4 368.8 222.4 368.8L223.2 365.2C223.2 365.2 221.8 356.2 221.3 353.6C220.7 350.9 220.6 348.3 219.8 345.7C218.9 343.2 216.6 339.7 216.4 338.3C216.1 336.7 214.7 337.4 216.2 333.2C217.7 329 217.7 326.8 217.7 326.8C217.7 326.8 216.7 323.9 215 323C213.3 322.2 211.6 321.5 212.4 319.7C213.3 318 214.2 319 217.6 318.4C221 317.7 226.3 315.4 222.9 314.2C219.5 312.8 218.2 311.6 216.4 312.1C214.5 312.5 212.6 312.8 211.2 313.1C209.7 313.5 208.1 312.9 207.9 311.8C207.7 310.8 206.6 309 206.6 309L204.2 306.8C204.2 306.8 201.8 304.8 203.5 303.4C205.1 302 209.1 300.6 209.1 300.6L214.2 300.9C214.2 300.9 214 295.9 212.2 296.2C210.3 296.6 206.5 297 206.5 297C206.5 297 205 296.9 203.9 297.5C202.9 298 199.2 301.1 199.2 301.1C199.2 301.1 198 301 196.8 301.2C195.7 301.5 193.9 300.2 193.6 298.8C193.3 297.3 193.3 295.4 193.3 295.4L196.7 293.2C196.7 293.2 198.2 290.6 198.3 289.1C198.3 287.5 198 285.9 198 285.9L200.4 283.9L199.9 281.4C199.9 281.4 196.7 281.2 196.8 279.3C196.8 277.3 195.4 280.3 196.8 277.3C198.1 274.3 199 272.5 199 272.5C199 272.5 198.9 270.6 197.9 269.3C196.9 267.9 196 267.4 193.5 268.6C191.1 269.9 188.8 268.7 187.7 270.5C186.5 272.3 183.9 272.8 182.8 275C181.7 277.1 180.7 278.1 178.9 278.7C177.1 279.4 173.9 280.5 173.9 280.5C173.9 280.5 171.6 281.3 171 280.3C171 280.3 168.4 278.9 167.3 279.1C166.2 279.4 165.8 279.5 164.8 280.4C163.8 281.4 162.1 284.3 162.1 284.3L161.6 287.5L161.8 290.2C159.9 294.1 160.3 294.4 158.6 295.2C156.8 295.9 156.1 296.5 155 297.1L152.5 303.8C152.5 303.8 150.6 306.1 148 304.8C145.4 303.3 145.7 301.2 144.1 300.4C142.4 299.6 137.3 295.6 137.3 295.6C137.3 295.6 133.8 295.5 132.7 295.7C131.6 296 130.4 293.8 128.7 293.4C127.1 292.9 121 289.5 121 289.5L116 285.8C116 285.8 114.6 280.7 113.2 279.8C112 278.9 113.2 275.9 111.4 274C109.5 272 109.5 268.5 107.2 270.6C104.9 272.6 107.1 270.2 104.9 272.6C102.7 275 105.7 276.6 102.7 275C99.6 273.3 97.4 273.6 98.3 270.4C99.2 267.1 98.5 265.7 99.5 264.4L104.8 260.1C104.8 260.1 102.7 257.2 107.1 253.6C111.4 250 114 245.6 116 243.6C117.9 241.7 125.5 231.3 125.5 231.3C125.5 231.3 127.7 228.2 123.9 229C120.2 229.7 118.5 233.5 117.4 235.3C116.2 237.1 112.9 241.6 111.6 243C110.3 244.4 107.7 246.8 106 248.3C104.4 249.8 101.4 250.8 98.8 253.2C96.2 255.7 96.2 255.7 93.5 257.4C90.7 259 92.5 258.4 88.7 259.1C85 259.8 82.7 260.3 78.1 260.1C73.4 259.9 72.8 259.5 68.5 260.4C64 261.3 55.5 261.8 53.8 262.5C52 263.2 48 264.4 45.7 266.5C43.3 268.4 40.4 269.5 39.4 271.9C38.4 274.4 37.8 275.7 36.1 276.9C34.4 277.9 33.6 280 30.2 278.3C26.8 276.7 27.6 276.5 23.6 276.6C19.7 276.5 17 274.3 14.5 275.6C12.1 276.9 13.6 276.9 9.09998 277.5C4.59998 277.9 5.99998 273.4 6.69998 271.3C7.39998 269.3 10.1 266.2 8.49998 266C2.49998 265.2 -0.800018 268.2 0.599982 263.6C1.99998 259 6.89998 248.1 8.09998 246.3C9.19998 244.5 11.6 240.8 14.6 238.4C17.6 235.9 18.6 234.5 20.9 232.8C23.3 231.2 23.1 230.1 26.8 227.8C30.6 225.5 28.6 227 32.8 224.4C36.9 221.6 36.4 223.3 38.8 219.7C38.8 219.7 40.8 218.2 43.7 215.6C46.8 213.1 46.4 217.7 46.4 217.7C46.4 217.7 49.5 223.4 52.4 219C55.4 214.5 53.5 212.5 57.1 211.1C60.6 209.6 64.5 209.2 64.9 207.6C65.3 205.9 62.6 203.8 58.8 204.1C55 204.5 52.2 205.8 57.3 200.5C62.5 195.2 64.1 193.5 65.9 190.7C67.6 188 72.5 183.1 75.1 181.1C77.8 179 80.2 177.3 82.8 174.9C85.5 172.4 87.1 169.4 89.5 167.3C91.9 165.4 94.1 163.4 95.6 162.7C97 162.1 95.4 164 100.3 161.1C105.2 158.2 104.3 159.8 106.6 157.4C108.8 155 108.8 155 108.8 155C108.8 155 108.7 148.8 115.5 149.9C122.3 151 121.2 151.2 126.1 146.6C131.1 142.1 133.7 140 135.3 138.3C136.9 136.4 138.9 134.9 140.8 132.6C142.6 130.3 141.5 127 143.9 126.6C146.1 126.2 145.6 127.1 148.7 127.6C151.9 128.2 153.3 129.1 154.5 127C155.5 124.7 152.7 124 154.1 121.5C155.6 118.9 153.6 116.9 158.2 118.4C162.8 119.8 161.6 120 165.3 120.8C168.9 121.6 166.2 125.6 168.9 121.6C171.7 117.6 169.5 116.6 171.3 113.8C173.1 111.1 173 110.8 174.7 109.2C176.3 107.7 175.6 107.6 176.4 106.3C177.3 104.9 182 105.2 185 108.5C188 111.8 191.2 112.3 189.6 114.5C188.2 116.8 187.2 121.9 190.2 119.8C193.3 117.6 196.6 118.9 194.5 113.6C192.3 108.3 191.2 107.2 191.8 104C192.3 100.8 191.6 96.8 192.9 98C194.3 99.3 197.3 102.8 197 99.5C196.8 96.1 194.9 94.8 197.5 94.3C200.2 93.8 201.3 96 201.7 98.1C202.2 100.3 202.7 99 204 101.5C205.2 104 205.1 102.9 204.8 107.3C204.5 111.6 205.7 115.9 208.2 112.7C210.7 109.5 211.1 109.7 211.2 106.3C211.2 102.7 211.6 106.6 211.2 102.7C210.9 98.9 211.7 101.1 210.9 97.3C210.2 93.6 212.3 94.3 209.4 91.8C206.6 89.3 204.3 87.4 201.7 86C199.1 84.6 198.7 82.6 196.1 83.1C193.4 83.6 193.2 82.3 190.1 84.3C187.1 86.5 186.1 87.4 182.9 88.9C179.7 90.3 182.3 93.7 179.7 90.3C177.1 86.9 176.7 87 177.3 83.8C177.9 80.7 178.6 80.5 178.5 78.5C178.6 76.6 179.1 75.7 180.5 75C182 74.3 183.5 72.5 183.5 72.5C184.6 68 187.4 66.6 180.8 66.5C174.2 66.3 173.8 68.2 172.7 64.6C171.5 61 170.3 62.4 172.3 58.8C174.3 55.2 176.1 60 174.3 55.2C172.6 50.5 173.2 52 170.9 49.8C168.5 47.5 166.2 44.1 165.9 42.2C165.5 40.4 161.8 41.1 165.5 38C169.2 35 168.5 35.1 172.9 32.4C177.4 29.6 180.9 26.2 183 23C185.1 19.9 185.3 17 189.3 19C193.1 21.1 192.1 19.7 195.1 21.4C198.1 23 198.8 24.5 201 23.7C203.1 22.9 203.9 20.8 205.4 22.9C207 24.8 207.4 26.7 209.3 28.6C211.3 30.6 212.2 31.5 214.1 31.6C216 31.7 217.3 32.2 219.1 33.3C220.9 34.5 221.6 34.3 224.8 36.8C228 39.2 228.1 39.7 232.2 38.8C236.3 38 241.3 37.4 244.6 36.8C248 36.1 245.7 34 253.6 38.9C261.6 43.9 265.3 45.1 270 45.4C274.7 45.6 274.3 43.7 278 44.6C281.5 45.3 281.7 47.7 284.4 45.6C287.1 43.4 287.9 41.4 291.2 42.7C294.6 44.1 296.1 44.2 298.9 44.7C301.7 45.3 305.2 47 306.8 49.3C308.4 51.7 310.7 55.5 312.6 55.5C314.6 55.5 317.7 57.6 319.5 58.8C321.3 60 324.7 59.7 325.8 64.9C326.9 70.2 326.7 71.3 328.9 74.7C331.2 78.1 332.7 79.9 334.1 77.5C335.7 75.3 335.7 71.5 336.9 69.7C338.1 67.9 340.9 65.1 343.3 65.2C345.8 65.6 348.9 64.2 346.9 61.5C344.7 58.8 343.4 59.4 342.5 56.8C341.7 54.3 341.5 51.3 341.5 51.3C341.5 51.3 342.5 48.8 345.2 50.3C347.7 51.6 349.2 54.8 351.4 54.4C353.6 53.9 356.6 53.3 357.2 56.4C357.8 59.4 357.8 59.4 357.3 63C356.8 66.6 359.1 69.6 356.7 71.6C354.3 73.4 354.1 74.7 350.9 75.8C347.7 76.8 349 74.3 346.8 78.5C344.6 82.8 344.7 82.8 343.4 84.9C340.5 89.8 339.5 88.4 339.5 92.7C339.6 97 337 97.8 339.6 98.8C342.1 99.9 341.6 99.2 344.3 97.1C347 95.1 347.6 96.1 349.9 92.1C352.2 88.2 353.5 86.8 355.6 83.6C357.7 80.6 359.2 78.4 361.5 76.7C363.9 75.1 367.1 73 368.9 73C370.9 72.9 374.1 73.5 371.1 76C368.1 78.6 368.5 78.5 367 80.7C365.4 82.9 364.2 84.7 364.3 86.6C364.3 88.6 363 87.7 364.6 90.1C366.3 92.5 367.4 92.6 369.9 91.3C372.2 90.1 373.9 88.1 374.3 86.3C374.7 84.3 375.4 83.4 378.2 84.4C381.1 85.3 382.2 85 383 86.9C383.7 88.7 383.7 88.7 383.7 88.7C383.7 88.7 387.2 90.8 386 94.1C384.7 97.5 385.4 97.3 382.6 100.6C379.8 103.8 380.1 103.8 377.6 104.6C375 105.5 373.8 105 372.8 107.8C371.9 110.8 368.8 108.6 371.9 110.8C374.9 112.7 378.1 112.6 380.8 110.9C383.5 109.2 385.1 107.8 388.5 106.7C391.8 105.6 396.3 105.2 398.7 103.5C401.1 101.9 403.3 101.1 404.6 100.1C406 98.9 409.4 94.9 406.5 101.6C403.6 108.5 402.9 109 403.7 110.7C404.4 112.5 405.6 116.6 407.2 113.4C409 110.5 409.4 106.8 411.5 109.6C413.6 112.2 412.5 114.8 415 115.4C417.5 116.1 416.9 115.4 419.5 116.5C421.9 117.5 420.6 118.6 423.8 118.7C426.9 118.9 429.3 116.9 431.8 118C434.3 119 435.1 115.3 437.1 121.4C439.1 127.5 439.2 122.2 440.4 124.3C441.6 126.4 442.6 125.5 444.1 129C445.6 132.6 445.9 134.1 446.8 135C447.8 135.9 449.9 134.7 450.4 137.7C451.1 140.8 452 143.7 453 145C454.1 146.3 457.4 150 457.8 151.8C458.2 153.7 459.6 154.9 459.4 157.3C459.1 159.7 461.4 159.7 458.3 162.1C455.4 164.6 454.4 163.7 452.7 167.1C451.1 170.6 447.8 168 448.9 171C449.9 174 450.4 174.9 453.2 177.4C456.1 180 456.9 184.1 458.5 184.5C460.2 185 461.1 186 462.6 187.9C464.2 189.9 463.6 190.5 466.5 191.1C469.3 191.7 470.1 191.9 472.1 193.9C474 195.7 474 196 475.8 197.4C477.6 198.7 479.9 196.6 480.5 194.1C481.3 191.7 481.9 190.4 484.9 192.5C488 194.6 490 194.7 491.9 195C494 195.5 495.4 197 498.6 197.5C501.8 198 508.8 198.3 510.7 199.9C512.5 201.4 515.6 199.3 516.8 200.9C517.8 202.6 516.2 202.2 516.4 204.9C516.5 207.6 515.7 213.5 519.7 210C523.6 206.6 522.9 204.8 526.1 203.4C529.2 202 531.9 203 532.2 201C532.5 199.1 534.6 197.8 530.2 194.8C525.8 191.8 521 189.4 518 186C515.1 182.7 513.4 182.3 507.1 177.7C500.8 173.1 492.1 168.6 488.5 163.8C484.9 159.2 481.2 153.7 475.1 148.6C469.1 143.7 464.5 138.1 461.6 135C458.7 132.1 459.3 133.5 453.7 128C448 122.6 443.8 121.5 442.4 117.9C441 114.3 442.2 114.9 439.1 113.1C436 111.4 435.4 110.4 432.3 108.2C429.2 106.2 422.3 96.7 418.6 90C414.9 83.4 417.1 82.2 411.6 77.9C406.1 73.5 404.7 68.8 403.4 71.4C401.9 74.1 404 74.3 399.9 77.4C395.9 80.7 393.6 82.6 392.7 76.6C391.9 70.6 393.6 67.6 393.4 64.4C393.2 61.4 393.9 61.3 392.3 57.3C390.7 53.4 389.3 51.7 388.9 49.8C388.5 47.9 389 47.8 387.5 44.6C386 41.4 386.9 35.8 384.4 32.9C381.9 29.8 379 28.5 377.8 22.5C376.6 16.6 375.5 14.9 374.7 9.49998C374.2 4.19998 370.9 -2.20002 375.2 -0.200024C379.5 1.69998 380.6 -0.500024 381.1 3.99998C381.7 8.49998 381.6 10.1 383.3 14.9C385 19.6 386.9 25.8 388.2 27.8C389.4 30 392.4 35.5 392.4 35.5C392.4 35.5 390.8 37.1 392.9 42C395.1 47 394.2 46.4 397 51C399.7 55.4 400.7 56.1 401.9 58.1C403 60.2 403.6 60.9 405.6 63.6C407.7 66.2 410.1 68.5 411.9 72.1C413.8 75.6 414.1 75.2 416.2 78.2C418.4 81.3 420.2 82.5 422 86.1C423.9 89.5 424.7 90.5 426.5 92.9C428.1 95.3 429.2 96.6 430.8 99C432.4 101.4 432.4 101.1 434 103C435.5 105.1 435.1 105.2 438.3 107.6C441.5 110 442.4 110.7 443.9 112.8C445.5 114.8 446.5 115.4 447.9 117C449.4 118.6 448.9 118.7 451.3 120.6C453.6 122.4 455.2 122.9 457.1 124.4C459 126 466.8 132.2 468.9 135.3C471 138.3 470.6 136.1 474.4 141.2C478.1 146.2 478.5 146.1 480.6 149.2C482.7 152.4 484.5 153.4 486.9 155.3C489.2 157.2 491.5 157.2 494.4 160.4C497.4 163.7 505.4 169.1 507.7 171.1C510.1 172.8 513.5 174.6 517 176.5C520.5 178.5 517.6 178 522.6 181.3C527.5 184.6 527.6 185.3 529.8 186.8C532.1 188.3 533.2 188.1 535.1 190C537.2 192 537.2 192.3 540 192.9C542.9 193.5 541 194.2 544.6 192.7C548.2 191.3 546 193.7 550.6 189.7C555.2 185.6 551.6 187.1 555.2 185.6C558.8 184.1 562.2 178 566.5 176.5C570.8 174.8 575.4 172.7 577.9 171.1C580.2 169.4 582 166.1 582.6 164C583.4 162 585 162.4 583.7 159.9C582.5 157.5 580.2 157.5 582.6 154.6C585.2 151.9 586.2 150.9 587.3 148.7C588.5 146.6 589.6 144.7 589.4 143.3C589 141.7 588.2 139.3 589.8 137.3C591.4 135.5 591.8 133.9 593.7 133.5C595.6 133.2 598.2 131 597.4 134.3C596.4 137.6 596.8 133.2 596.4 137.6C596.2 142 593.8 143.6 596.4 145.1C599 146.4 598.6 146.5 600.9 146.4C603.1 146.3 602.5 143 605.7 147.4C608.9 151.8 611 152.2 612.2 152.7C613.5 153.3 615.3 152.9 616.9 152.9C618.4 153.1 622 153.3 623.1 152.9C624.2 152.8 625.1 153.2 627.3 152.7C629.6 152.3 633.5 148 633.5 148L635.7 143.7C635.7 143.7 636.4 143.2 635.8 140.2C635.3 137.3 633.3 137.6 634.9 135.4C636.3 133.1 638 131.6 638 131.6C638 131.6 637.3 128.7 639.9 127.3C642.3 126.1 645.2 125.1 647.9 123C650.7 121.1 656.3 120.2 657.4 119.7C658.4 119 663.8 118.8 664.8 118.2C665.9 117.5 665.7 116.7 668.3 115.9C670.8 115.2 671.1 114.6 674 115.7C676.8 116.7 679.2 116.6 681.2 115.1C683.2 113.4 685.3 114.6 688 116.1C690.5 117.4 691.1 116.6 694 117.2C696.8 117.8 698.6 118.5 700.8 117.8C702.9 117 701 115 705.4 115.7C709.7 116.4 710.6 118.2 712.6 118.6C714.7 119 718 118.6 719.5 118.3C721 118 722.2 116.3 724.3 115.5C726.5 114.7 733.3 112.5 733.6 113.6C733.8 114.8 732 119.7 732 119.7C732 119.7 732.2 122.4 733.1 124.9C733.9 127.4 736.8 130 735.3 131.9C733.7 133.7 732.5 135.5 729.9 135.7C727.1 135.7 723.6 137.5 721.4 136.1C719.2 134.6 714.3 133.3 714.3 133.3C714.3 133.3 710.4 130.9 708.9 131.6C706.7 132.8 706 133.4 705.3 135.1Z" fill="#D9D9D9"/>
<path d="M297 266C286.5 266 278 274.5 278 285C278 287.7 278.6 290.3 279.7 292.8C284.4 303.2 293.6 314.2 296.2 317.3C296.4 317.5 296.7 317.7 297 317.7C297.3 317.7 297.6 317.6 297.8 317.3C300.5 314.2 309.6 303.2 314.3 292.8C315.4 290.4 316 287.8 316 285C316 274.6 307.5 266 297 266ZM297 294.9C291.6 294.9 287.1 290.5 287.1 285C287.1 279.6 291.5 275.1 297 275.1C302.5 275.1 306.9 279.5 306.9 285C306.9 290.5 302.4 294.9 297 294.9Z" fill="#7F0909"/>
<path d="M336 406.1C329.9 406.1 325 411 325 417.1C325 418.7 325.3 420.2 326 421.6C328.7 427.6 334 434 335.6 435.8C335.7 435.9 335.9 436 336.1 436C336.3 436 336.4 435.9 336.6 435.8C338.1 434 343.4 427.6 346.2 421.6C346.8 420.2 347.2 418.7 347.2 417.1C347 411 342.1 406.1 336 406.1ZM336 422.8C332.9 422.8 330.3 420.2 330.3 417.1C330.3 414 332.9 411.4 336 411.4C339.1 411.4 341.7 414 341.7 417.1C341.7 420.2 339.1 422.8 336 422.8Z" fill="#7F0909"/>
<path d="M227.4 397.4C221.3 397.4 216.4 402.3 216.4 408.4C216.4 410 216.7 411.5 217.4 412.9C220.1 418.9 225.4 425.3 227 427.1C227.1 427.2 227.3 427.3 227.5 427.3C227.7 427.3 227.8 427.2 228 427.1C229.5 425.3 234.8 418.9 237.6 412.9C238.2 411.5 238.6 410 238.6 408.4C238.4 402.4 233.5 397.4 227.4 397.4ZM227.4 414.1C224.3 414.1 221.7 411.5 221.7 408.4C221.7 405.3 224.3 402.7 227.4 402.7C230.5 402.7 233.1 405.3 233.1 408.4C233.1 411.6 230.6 414.1 227.4 414.1Z" fill="#7F0909"/>
<path d="M529.4 229.7C523.3 229.7 518.4 234.6 518.4 240.7C518.4 242.3 518.7 243.8 519.4 245.2C522.1 251.2 527.4 257.6 529 259.4C529.1 259.5 529.3 259.6 529.5 259.6C529.7 259.6 529.8 259.5 530 259.4C531.5 257.6 536.8 251.2 539.6 245.2C540.2 243.8 540.6 242.3 540.6 240.7C540.4 234.6 535.5 229.7 529.4 229.7ZM529.4 246.4C526.3 246.4 523.7 243.8 523.7 240.7C523.7 237.6 526.3 235 529.4 235C532.5 235 535.1 237.6 535.1 240.7C535.1 243.8 532.6 246.4 529.4 246.4Z" fill="#7F0909"/>
<path d="M703.3 100.2C697.2 100.2 692.3 105.1 692.3 111.2C692.3 112.8 692.6 114.3 693.3 115.7C696 121.7 701.3 128.1 702.9 129.9C703 130 703.2 130.1 703.4 130.1C703.6 130.1 703.7 130 703.9 129.9C705.4 128.1 710.7 121.7 713.5 115.7C714.1 114.3 714.5 112.8 714.5 111.2C714.3 105.2 709.3 100.2 703.3 100.2ZM703.3 116.9C700.2 116.9 697.6 114.3 697.6 111.2C697.6 108.1 700.2 105.5 703.3 105.5C706.4 105.5 709 108.1 709 111.2C709 114.4 706.4 116.9 703.3 116.9Z" fill="#7F0909"/>
<path d="M341.7 101.2C335.6 101.2 330.7 106.1 330.7 112.2C330.7 113.8 331 115.3 331.7 116.7C334.4 122.7 339.7 129.1 341.3 130.9C341.4 131 341.6 131.1 341.8 131.1C342 131.1 342.1 131 342.3 130.9C343.8 129.1 349.1 122.7 351.9 116.7C352.5 115.3 352.9 113.8 352.9 112.2C352.7 106.2 347.8 101.2 341.7 101.2ZM341.7 117.9C338.6 117.9 336 115.3 336 112.2C336 109.1 338.6 106.5 341.7 106.5C344.8 106.5 347.4 109.1 347.4 112.2C347.4 115.4 344.9 117.9 341.7 117.9Z" fill="#7F0909"/>
<path d="M218.7 57.2C212.6 57.2 207.7 62.1 207.7 68.2C207.7 69.8 208 71.3 208.7 72.7C211.4 78.7 216.7 85.1 218.3 86.9C218.4 87 218.6 87.1 218.8 87.1C219 87.1 219.1 87 219.3 86.9C220.8 85.1 226.1 78.7 228.9 72.7C229.5 71.3 229.9 69.8 229.9 68.2C229.7 62.2 224.8 57.2 218.7 57.2ZM218.7 73.9C215.6 73.9 213 71.3 213 68.2C213 65.1 215.6 62.5 218.7 62.5C221.8 62.5 224.4 65.1 224.4 68.2C224.4 71.4 221.9 73.9 218.7 73.9Z" fill="#7F0909"/>
<path d="M166 251.1C159.9 251.1 155 256 155 262.1C155 263.7 155.3 265.2 156 266.6C158.7 272.6 164 279 165.6 280.8C165.7 280.9 165.9 281 166.1 281C166.3 281 166.4 280.9 166.6 280.8C168.1 279 173.4 272.6 176.2 266.6C176.8 265.2 177.2 263.7 177.2 262.1C177 256 172.1 251.1 166 251.1ZM166 267.8C162.9 267.8 160.3 265.2 160.3 262.1C160.3 259 162.9 256.4 166 256.4C169.1 256.4 171.7 259 171.7 262.1C171.8 265.3 169.2 267.8 166 267.8Z" fill="#7F0909"/>
</g>
<defs>
<clipPath id="clip0_286_1109">
<rect width="735" height="483.1" fill="white"/>
</clipPath>
</defs>
</svg>
