<svg width="33" height="33" viewBox="0 0 33 33" fill="none" xmlns="http://www.w3.org/2000/svg">
<path d="M16.5 0C9.67441 0 4.125 5.54941 4.125 12.375C4.125 21.5016 15.5396 32.3555 16.0295 32.8131C16.1648 32.9355 16.3324 33 16.5 33C16.6676 33 16.8416 32.9355 16.9705 32.8131C17.4604 32.3555 28.875 21.5016 28.875 12.375C28.875 5.54941 23.3256 0 16.5 0ZM16.5 19.2521C12.7102 19.2521 9.62285 16.1648 9.62285 12.375C9.62285 8.58516 12.7102 5.49785 16.5 5.49785C20.2898 5.49785 23.3771 8.58516 23.3771 12.375C23.3771 16.1648 20.2898 19.2521 16.5 19.2521Z" fill="url(#paint0_linear_65_70)"/>
<defs>
<linearGradient id="paint0_linear_65_70" x1="16.5" y1="0" x2="16.5" y2="33" gradientUnits="userSpaceOnUse">
<stop stop-color="#E76C19"/>
<stop offset="1" stop-color="#7F0909"/>
</linearGradient>
</defs>
</svg>
